<?xml version="1.0" encoding="UTF-8" ?>
<!DOCTYPE svg PUBLIC "-//W3C//DTD SVG 1.1//EN" "http://www.w3.org/Graphics/SVG/1.1/DTD/svg11.dtd">
<svg width="119pt" height="125pt" viewBox="0 0 119 125" version="1.1" xmlns="http://www.w3.org/2000/svg">
<g id="#efefeffe">
<path fill="#efefef" opacity="1.00" d=" M 11.02 10.86 C 25.86 9.82 40.49 7.85 54.87 4.35 C 55.23 4.79 55.95 5.69 56.32 6.13 C 42.95 12.33 27.67 12.68 13.18 13.38 C 15.37 23.94 19.89 35.89 14.29 46.38 L 13.32 46.21 C 14.31 39.66 15.97 32.37 13.83 26.07 C 12.94 24.78 12.72 23.21 12.29 21.74 C 10.88 18.31 12.12 14.48 11.02 10.86 Z" />
<path fill="#efefef" opacity="1.00" d=" M 100.26 25.16 C 100.59 25.40 101.26 25.89 101.59 26.14 C 101.62 31.75 100.16 38.12 103.19 43.18 C 107.86 56.91 117.68 72.23 109.75 86.63 C 108.64 84.34 110.00 81.88 110.71 79.68 C 112.19 71.15 109.70 62.32 105.23 55.00 C 99.94 45.99 99.26 35.33 100.26 25.16 Z" />
</g>
<g id="#b7c0c1ec">
<path fill="#b7c0c1" opacity="0.93" d=" M 54.87 4.35 C 57.99 2.38 61.74 5.07 65.04 5.59 C 63.80 5.51 62.81 5.82 62.06 6.53 C 65.89 7.11 69.59 8.26 73.34 9.17 C 68.25 10.81 62.30 7.49 57.06 6.34 L 56.32 6.13 C 55.95 5.69 55.23 4.79 54.87 4.35 Z" />
</g>
<g id="#fdfdfcff">
<path fill="#fdfdfc" opacity="1.00" d=" M 56.32 6.13 L 57.06 6.34 C 57.06 11.87 56.86 17.39 57.21 22.91 C 56.85 23.48 56.14 24.63 55.78 25.20 L 55.26 24.95 C 53.88 22.99 50.82 27.28 50.66 23.94 C 50.32 21.44 53.59 23.34 54.93 22.81 C 54.00 20.09 50.49 20.45 48.62 21.97 C 48.06 23.00 47.63 24.11 47.26 25.23 C 47.37 21.07 42.52 20.97 44.82 25.13 C 44.48 30.98 40.44 18.22 40.15 24.87 C 39.96 25.16 39.58 25.74 39.40 26.03 C 35.13 22.74 30.36 27.65 35.10 31.16 C 34.62 31.04 33.67 30.80 33.19 30.68 C 30.63 28.35 28.89 27.70 26.49 30.95 C 28.39 34.14 31.62 36.72 34.42 32.87 C 35.73 32.19 37.39 31.11 38.46 32.82 C 26.65 39.30 19.72 55.35 27.72 67.37 C 29.55 71.02 34.31 73.16 33.25 77.93 C 27.82 75.86 27.23 80.22 27.49 84.50 C 23.39 83.69 20.88 85.70 22.06 89.97 C 17.86 90.16 13.60 90.33 9.43 89.65 C 2.73 79.56 5.51 66.66 9.92 56.11 C 10.94 52.68 12.93 49.67 14.29 46.38 C 19.89 35.89 15.37 23.94 13.18 13.38 C 27.67 12.68 42.95 12.33 56.32 6.13 M 23.23 35.41 C 20.24 35.91 18.00 40.26 22.30 40.71 C 27.41 43.96 14.41 40.13 17.36 44.70 C 19.10 46.31 24.14 50.12 22.45 45.19 C 25.66 42.74 30.38 35.85 23.23 35.41 M 16.19 47.89 C 11.57 51.80 18.81 54.62 21.48 52.42 C 23.94 48.89 19.11 45.85 16.19 47.89 M 14.87 54.12 C 13.26 57.48 19.34 55.65 21.23 56.07 C 22.40 52.76 16.76 54.41 14.87 54.12 M 19.14 57.26 C 17.30 56.97 12.00 58.55 15.96 59.56 C 21.04 58.01 11.63 63.41 16.84 63.24 C 19.67 64.15 25.38 60.66 19.51 60.90 C 21.13 59.64 22.92 56.11 19.14 57.26 M 19.17 64.31 C 15.06 64.77 16.69 68.26 19.95 66.27 C 27.32 65.73 13.33 69.91 19.96 70.27 C 25.85 70.48 24.84 61.68 19.17 64.31 Z" />
</g>
<g id="#c3dde4ff">
<path fill="#c3dde4" opacity="1.00" d=" M 57.06 6.34 C 62.30 7.49 68.25 10.81 73.34 9.17 C 80.92 10.39 88.61 11.52 96.28 10.28 C 99.58 9.81 106.29 8.83 104.24 14.29 C 100.51 8.72 102.43 15.86 100.32 18.36 C 97.81 30.15 97.45 42.96 102.97 53.99 C 102.99 54.98 105.67 57.44 105.23 55.00 C 109.70 62.32 112.19 71.15 110.71 79.68 C 110.00 81.88 108.64 84.34 109.75 86.63 C 103.07 102.36 84.34 106.18 69.68 110.61 C 64.07 111.44 59.09 117.58 53.30 114.66 C 43.71 109.40 31.88 108.73 22.78 102.57 C 34.37 106.15 46.36 108.72 57.28 114.01 C 67.02 109.43 77.10 105.49 87.70 103.41 C 87.81 102.99 88.04 102.17 88.15 101.76 C 95.09 101.62 101.32 96.15 105.20 90.78 C 100.21 90.59 95.21 90.62 90.23 90.83 C 90.33 90.39 90.54 89.51 90.65 89.06 C 93.47 90.37 93.95 83.45 91.01 82.57 C 90.52 80.75 88.30 81.61 86.95 81.21 C 85.78 79.73 83.90 79.33 82.14 79.11 L 81.85 78.15 C 81.67 76.40 79.53 76.35 78.33 75.59 C 80.19 72.75 82.49 70.20 85.76 69.02 C 87.93 66.67 90.16 66.70 92.98 67.88 C 95.60 64.98 85.44 64.51 90.90 63.42 C 95.30 64.44 96.33 59.73 91.99 58.89 C 91.79 58.57 91.39 57.94 91.18 57.62 C 92.10 56.30 89.14 53.87 92.01 53.99 C 95.87 52.70 91.23 58.82 94.94 57.10 C 97.30 54.80 94.81 51.53 91.93 51.72 L 91.82 51.12 C 94.31 50.51 96.42 48.76 93.86 46.12 C 90.59 44.41 91.54 48.85 89.32 49.07 C 90.46 47.32 90.32 45.90 87.80 46.73 L 87.68 46.01 C 89.30 44.84 94.70 45.01 92.41 42.03 L 92.00 41.36 C 91.22 38.35 89.06 35.86 86.03 38.20 C 84.69 37.98 83.69 37.16 82.91 36.09 C 86.90 30.35 81.29 29.73 76.99 32.15 L 77.08 31.16 C 81.82 29.52 79.77 26.21 75.92 29.29 C 77.93 23.46 73.19 25.95 72.93 30.14 C 72.40 30.03 71.36 29.81 70.83 29.70 C 71.58 27.82 72.98 26.15 73.03 24.04 C 70.38 23.43 70.05 26.75 68.65 28.23 C 66.82 29.52 67.12 27.08 66.87 25.86 C 66.63 23.70 69.85 24.85 69.72 23.16 C 67.67 22.78 65.06 21.01 63.22 22.15 C 65.11 23.44 64.95 25.28 63.88 27.13 C 63.37 26.36 62.84 25.59 62.30 24.82 C 62.06 21.94 58.70 19.17 57.21 22.91 C 56.86 17.39 57.06 11.87 57.06 6.34 Z" />
</g>
<g id="#f8fdfcff">
<path fill="#f8fdfc" opacity="1.00" d=" M 62.06 6.53 C 62.81 5.82 63.80 5.51 65.04 5.59 C 65.72 5.78 67.08 6.17 67.75 6.36 C 77.01 9.19 86.73 9.63 96.28 10.28 C 88.61 11.52 80.92 10.39 73.34 9.17 C 69.59 8.26 65.89 7.11 62.06 6.53 Z" />
<path fill="#f8fdfc" opacity="1.00" d=" M 13.83 26.07 C 15.97 32.37 14.31 39.66 13.32 46.21 C 12.98 48.40 10.92 48.66 11.90 46.07 C 14.16 39.61 13.68 32.78 13.83 26.07 Z" />
<path fill="#f8fdfc" opacity="1.00" d=" M 35.43 27.15 C 40.04 25.52 36.41 32.25 35.43 27.15 Z" />
<path fill="#f8fdfc" opacity="1.00" d=" M 23.08 37.30 C 28.94 38.92 20.33 40.71 23.08 37.30 Z" />
<path fill="#f8fdfc" opacity="1.00" d=" M 23.43 101.47 C 36.34 101.42 49.27 101.25 62.18 101.61 C 54.04 99.92 57.83 109.17 57.28 114.01 C 46.36 108.72 34.37 106.15 22.78 102.57 C 22.94 102.30 23.27 101.75 23.43 101.47 Z" />
</g>
<g id="#5d5e5f71">
<path fill="#5d5e5f" opacity="0.44" d=" M 67.75 6.36 C 79.22 7.09 90.43 10.42 102.06 9.23 C 105.51 8.32 106.07 12.19 104.24 14.29 C 106.29 8.83 99.58 9.81 96.28 10.28 C 86.73 9.63 77.01 9.19 67.75 6.36 Z" />
</g>
<g id="#b4bec1f7">
<path fill="#b4bec1" opacity="0.97" d=" M 100.32 18.36 C 102.43 15.86 100.51 8.72 104.24 14.29 C 104.10 14.67 103.83 15.42 103.70 15.80 C 102.61 19.16 102.19 22.67 101.59 26.14 C 101.26 25.89 100.59 25.40 100.26 25.16 C 99.26 35.33 99.94 45.99 105.23 55.00 C 105.67 57.44 102.99 54.98 102.97 53.99 C 97.45 42.96 97.81 30.15 100.32 18.36 Z" />
</g>
<g id="#60616278">
<path fill="#606162" opacity="0.47" d=" M 101.59 26.14 C 102.19 22.67 102.61 19.16 103.70 15.80 C 102.78 24.89 101.80 34.05 103.19 43.18 C 100.16 38.12 101.62 31.75 101.59 26.14 Z" />
</g>
<g id="#26242eff">
<path fill="#26242e" opacity="1.00" d=" M 48.62 21.97 C 50.49 20.45 54.00 20.09 54.93 22.81 C 53.59 23.34 50.32 21.44 50.66 23.94 C 50.82 27.28 53.88 22.99 55.26 24.95 C 53.32 28.96 46.67 26.42 48.62 21.97 Z" />
<path fill="#26242e" opacity="1.00" d=" M 63.22 22.15 C 65.06 21.01 67.67 22.78 69.72 23.16 C 69.85 24.85 66.63 23.70 66.87 25.86 C 66.82 27.37 64.72 29.25 63.88 27.13 C 64.95 25.28 65.11 23.44 63.22 22.15 Z" />
<path fill="#26242e" opacity="1.00" d=" M 72.93 30.14 C 73.19 25.95 77.93 23.46 75.92 29.29 C 79.77 26.21 81.82 29.52 77.08 31.16 C 75.51 32.49 73.47 32.35 72.93 30.14 Z" />
<path fill="#26242e" opacity="1.00" d=" M 23.23 35.41 C 30.38 35.85 25.66 42.74 22.45 45.19 C 24.14 50.12 19.10 46.31 17.36 44.70 C 14.41 40.13 27.41 43.96 22.30 40.71 C 18.00 40.26 20.24 35.91 23.23 35.41 M 23.08 37.30 C 20.33 40.71 28.94 38.92 23.08 37.30 Z" />
<path fill="#26242e" opacity="1.00" d=" M 86.03 38.20 C 89.06 35.86 91.22 38.35 92.00 41.36 C 90.44 40.94 88.32 39.04 88.78 42.01 C 86.45 40.06 80.84 41.15 86.03 38.20 Z" />
<path fill="#26242e" opacity="1.00" d=" M 91.18 57.62 C 86.96 57.51 88.38 51.77 91.93 51.72 C 94.81 51.53 97.30 54.80 94.94 57.10 C 91.23 58.82 95.87 52.70 92.01 53.99 C 89.14 53.87 92.10 56.30 91.18 57.62 Z" />
<path fill="#26242e" opacity="1.00" d=" M 19.17 64.31 C 24.84 61.68 25.85 70.48 19.96 70.27 C 13.33 69.91 27.32 65.73 19.95 66.27 C 16.69 68.26 15.06 64.77 19.17 64.31 Z" />
</g>
<g id="#232f28ff">
<path fill="#232f28" opacity="1.00" d=" M 57.21 22.91 C 58.70 19.17 62.06 21.94 62.30 24.82 C 64.09 28.24 55.87 26.84 55.78 25.20 C 56.14 24.63 56.85 23.48 57.21 22.91 Z" />
<path fill="#232f28" opacity="1.00" d=" M 68.65 28.23 C 70.05 26.75 70.38 23.43 73.03 24.04 C 72.98 26.15 71.58 27.82 70.83 29.70 C 69.65 29.86 68.93 29.37 68.65 28.23 Z" />
<path fill="#232f28" opacity="1.00" d=" M 92.41 42.03 C 94.70 45.01 89.30 44.84 87.68 46.01 C 83.65 43.61 90.82 43.19 92.41 42.03 Z" />
</g>
<g id="#9a9a9abf">
<path fill="#9a9a9a" opacity="0.75" d=" M 12.29 21.74 C 12.72 23.21 12.94 24.78 13.83 26.07 C 13.68 32.78 14.16 39.61 11.90 46.07 C 10.92 48.66 12.98 48.40 13.32 46.21 L 14.29 46.38 C 12.93 49.67 10.94 52.68 9.92 56.11 C 9.39 55.77 8.33 55.10 7.80 54.76 C 12.60 44.46 13.13 32.96 12.29 21.74 Z" />
</g>
<g id="#212124ff">
<path fill="#212124" opacity="1.00" d=" M 44.82 25.13 C 42.52 20.97 47.37 21.07 47.26 25.23 C 47.32 29.70 40.46 28.95 40.15 24.87 C 40.44 18.22 44.48 30.98 44.82 25.13 Z" />
</g>
<g id="#d9e6ddff">
<path fill="#d9e6dd" opacity="1.00" d=" M 47.26 25.23 C 47.63 24.11 48.06 23.00 48.62 21.97 C 46.67 26.42 53.32 28.96 55.26 24.95 L 55.78 25.20 C 55.87 26.84 64.09 28.24 62.30 24.82 C 62.84 25.59 63.37 26.36 63.88 27.13 C 64.72 29.25 66.82 27.37 66.87 25.86 C 67.12 27.08 66.82 29.52 68.65 28.23 C 68.93 29.37 69.65 29.86 70.83 29.70 C 71.36 29.81 72.40 30.03 72.93 30.14 C 73.47 32.35 75.51 32.49 77.08 31.16 L 76.99 32.15 C 76.13 34.23 78.08 34.22 79.55 34.50 C 79.61 36.49 81.42 38.13 82.91 36.09 C 83.69 37.16 84.69 37.98 86.03 38.20 C 80.84 41.15 86.45 40.06 88.78 42.01 C 88.32 39.04 90.44 40.94 92.00 41.36 L 92.41 42.03 C 90.82 43.19 83.65 43.61 87.68 46.01 L 87.80 46.73 C 86.90 49.42 88.83 52.48 91.82 51.12 L 91.93 51.72 C 88.38 51.77 86.96 57.51 91.18 57.62 C 91.39 57.94 91.79 58.57 91.99 58.89 C 91.01 58.87 88.08 56.53 88.72 58.91 C 89.71 62.66 84.97 65.23 85.76 69.02 C 82.49 70.20 80.19 72.75 78.33 75.59 C 79.53 76.35 81.67 76.40 81.85 78.15 C 81.18 78.13 79.84 78.10 79.17 78.08 C 78.58 77.86 77.38 77.43 76.78 77.21 C 76.81 74.41 78.49 72.25 80.36 70.36 C 86.77 63.25 88.10 52.21 82.96 44.01 C 74.29 28.60 53.49 26.06 38.46 32.82 C 37.39 31.11 35.73 32.19 34.42 32.87 C 35.43 30.10 28.34 33.68 33.19 30.68 C 33.67 30.80 34.62 31.04 35.10 31.16 C 37.97 31.99 41.55 28.91 39.40 26.03 C 39.58 25.74 39.96 25.16 40.15 24.87 C 40.46 28.95 47.32 29.70 47.26 25.23 Z" />
</g>
<g id="#262628ff">
<path fill="#262628" opacity="1.00" d=" M 35.10 31.16 C 30.36 27.65 35.13 22.74 39.40 26.03 C 41.55 28.91 37.97 31.99 35.10 31.16 M 35.43 27.15 C 36.41 32.25 40.04 25.52 35.43 27.15 Z" />
</g>
<g id="#323035ff">
<path fill="#323035" opacity="1.00" d=" M 26.49 30.95 C 28.89 27.70 30.63 28.35 33.19 30.68 C 28.34 33.68 35.43 30.10 34.42 32.87 C 31.62 36.72 28.39 34.14 26.49 30.95 Z" />
</g>
<g id="#958d4dff">
<path fill="#958d4d" opacity="1.00" d=" M 38.46 32.82 C 53.49 26.06 74.29 28.60 82.96 44.01 C 88.10 52.21 86.77 63.25 80.36 70.36 C 78.49 72.25 76.81 74.41 76.78 77.21 C 74.75 75.47 75.89 72.25 74.27 70.11 C 77.96 72.32 80.33 67.26 81.73 64.63 C 87.80 52.83 80.14 37.82 68.04 33.77 C 65.16 31.31 60.77 31.66 57.19 30.90 C 52.30 30.31 47.15 31.21 42.72 33.38 C 29.47 37.59 21.73 54.36 29.47 66.56 C 31.24 68.15 32.18 72.14 35.08 71.42 C 34.32 73.55 34.13 75.84 33.25 77.93 C 34.31 73.16 29.55 71.02 27.72 67.37 C 19.72 55.35 26.65 39.30 38.46 32.82 Z" />
</g>
<g id="#f6ecbdff">
<path fill="#f6ecbd" opacity="1.00" d=" M 42.72 33.38 C 47.15 31.21 52.30 30.31 57.19 30.90 C 57.38 33.45 54.58 33.04 52.85 33.38 C 49.91 33.37 47.12 34.44 44.26 34.99 C 43.88 34.59 43.11 33.78 42.72 33.38 Z" />
</g>
<g id="#e0dec3ff">
<path fill="#e0dec3" opacity="1.00" d=" M 57.19 30.90 C 60.77 31.66 65.16 31.31 68.04 33.77 C 67.30 35.09 67.11 36.60 66.98 38.08 C 64.85 32.09 57.70 34.12 52.85 33.38 C 54.58 33.04 57.38 33.45 57.19 30.90 Z" />
</g>
<g id="#51635fff">
<path fill="#51635f" opacity="1.00" d=" M 76.99 32.15 C 81.29 29.73 86.90 30.35 82.91 36.09 C 81.42 38.13 79.61 36.49 79.55 34.50 C 78.08 34.22 76.13 34.23 76.99 32.15 Z" />
</g>
<g id="#b8a36fff">
<path fill="#b8a36f" opacity="1.00" d=" M 44.26 34.99 C 47.12 34.44 49.91 33.37 52.85 33.38 C 57.70 34.12 64.85 32.09 66.98 38.08 C 68.27 41.05 70.34 43.75 70.83 47.02 C 68.87 47.65 66.76 47.05 64.76 47.02 L 64.14 46.77 C 62.76 45.39 60.70 45.82 58.93 45.71 C 60.51 45.03 63.67 46.11 64.05 44.19 C 61.51 44.36 56.36 42.50 55.78 45.88 C 55.24 45.26 54.92 43.58 54.00 44.76 C 52.40 43.66 45.07 43.12 48.02 46.05 C 47.69 46.24 47.04 46.63 46.71 46.82 C 44.11 47.15 41.48 47.41 38.87 47.07 C 39.21 42.73 42.40 38.93 44.26 34.99 M 49.17 36.33 C 46.49 37.00 45.42 40.28 45.12 42.75 C 48.03 42.61 50.94 42.54 53.84 42.86 C 54.19 39.24 54.48 33.51 49.17 36.33 M 56.00 36.01 C 52.96 43.19 59.68 43.18 64.86 42.70 C 64.12 38.57 60.39 34.85 56.00 36.01 Z" />
</g>
<g id="#fdfaf4ff">
<path fill="#fdfaf4" opacity="1.00" d=" M 29.47 66.56 C 21.73 54.36 29.47 37.59 42.72 33.38 C 43.11 33.78 43.88 34.59 44.26 34.99 C 42.40 38.93 39.21 42.73 38.87 47.07 C 41.48 47.41 44.11 47.15 46.71 46.82 C 50.43 55.90 36.64 47.71 37.99 55.15 C 37.53 55.30 36.60 55.61 36.14 55.76 C 32.38 56.34 32.70 65.90 35.87 68.06 C 35.79 69.23 35.53 70.35 35.08 71.42 C 32.18 72.14 31.24 68.15 29.47 66.56 Z" />
<path fill="#fdfaf4" opacity="1.00" d=" M 17.22 49.35 C 23.45 48.09 16.91 54.02 17.22 49.35 Z" />
</g>
<g id="#c8dce1ff">
<path fill="#c8dce1" opacity="1.00" d=" M 66.98 38.08 C 67.11 36.60 67.30 35.09 68.04 33.77 C 80.14 37.82 87.80 52.83 81.73 64.63 C 80.33 67.26 77.96 72.32 74.27 70.11 L 73.87 69.19 C 77.56 65.83 76.41 60.44 75.99 56.02 C 73.06 56.36 72.92 53.73 72.11 51.65 C 68.70 51.65 62.55 52.42 64.76 47.02 C 66.76 47.05 68.87 47.65 70.83 47.02 C 70.34 43.75 68.27 41.05 66.98 38.08 Z" />
</g>
<g id="#f8f1d7ff">
<path fill="#f8f1d7" opacity="1.00" d=" M 49.17 36.33 C 54.48 33.51 54.19 39.24 53.84 42.86 C 50.94 42.54 48.03 42.61 45.12 42.75 C 45.42 40.28 46.49 37.00 49.17 36.33 Z" />
</g>
<g id="#f6f3d4ff">
<path fill="#f6f3d4" opacity="1.00" d=" M 56.00 36.01 C 60.39 34.85 64.12 38.57 64.86 42.70 C 59.68 43.18 52.96 43.19 56.00 36.01 Z" />
</g>
<g id="#ebcb86ff">
<path fill="#ebcb86" opacity="1.00" d=" M 48.02 46.05 C 45.07 43.12 52.40 43.66 54.00 44.76 C 53.44 47.11 49.85 45.59 48.02 46.05 Z" />
</g>
<g id="#a46c16ff">
<path fill="#a46c16" opacity="1.00" d=" M 54.00 44.76 C 54.92 43.58 55.24 45.26 55.78 45.88 C 56.56 45.84 58.14 45.75 58.93 45.71 C 60.70 45.82 62.76 45.39 64.14 46.77 C 63.94 48.29 64.07 49.93 63.33 51.33 C 60.95 49.79 62.61 45.73 59.13 47.59 C 57.19 46.93 55.18 46.41 53.18 47.17 C 49.76 45.95 47.97 47.91 48.16 51.27 C 48.15 51.63 48.12 52.36 48.11 52.73 C 47.50 52.83 46.29 53.02 45.69 53.12 C 45.29 53.14 44.50 53.18 44.11 53.19 C 41.98 52.47 39.23 52.58 38.69 55.25 L 37.99 55.15 C 36.64 47.71 50.43 55.90 46.71 46.82 C 47.04 46.63 47.69 46.24 48.02 46.05 C 49.85 45.59 53.44 47.11 54.00 44.76 Z" />
<path fill="#a46c16" opacity="1.00" d=" M 66.94 80.01 C 62.05 85.55 59.79 72.43 65.25 73.65 C 66.54 75.53 66.20 77.92 66.94 80.01 Z" />
<path fill="#a46c16" opacity="1.00" d=" M 74.30 75.58 C 76.59 78.98 67.13 77.10 74.30 75.58 Z" />
<path fill="#a46c16" opacity="1.00" d=" M 72.32 83.43 C 73.94 84.02 78.05 82.12 77.70 84.65 C 76.15 84.24 71.86 85.89 72.32 83.43 Z" />
<path fill="#a46c16" opacity="1.00" d=" M 79.34 83.43 C 85.54 82.05 80.34 87.31 79.34 83.43 Z" />
</g>
<g id="#f5db99ff">
<path fill="#f5db99" opacity="1.00" d=" M 55.78 45.88 C 56.36 42.50 61.51 44.36 64.05 44.19 C 63.67 46.11 60.51 45.03 58.93 45.71 C 58.14 45.75 56.56 45.84 55.78 45.88 Z" />
</g>
<g id="#2b333aff">
<path fill="#2b333a" opacity="1.00" d=" M 89.32 49.07 C 91.54 48.85 90.59 44.41 93.86 46.12 C 96.42 48.76 94.31 50.51 91.82 51.12 C 88.83 52.48 86.90 49.42 87.80 46.73 C 90.32 45.90 90.46 47.32 89.32 49.07 Z" />
</g>
<g id="#eaa52fff">
<path fill="#eaa52f" opacity="1.00" d=" M 48.16 51.27 C 47.97 47.91 49.76 45.95 53.18 47.17 C 52.00 47.73 47.68 49.12 50.99 49.81 C 55.53 50.39 50.06 52.71 48.16 51.27 Z" />
</g>
<g id="#e09314ff">
<path fill="#e09314" opacity="1.00" d=" M 53.18 47.17 C 55.18 46.41 57.19 46.93 59.13 47.59 C 60.12 49.68 59.30 53.07 63.33 51.33 C 64.07 49.93 63.94 48.29 64.14 46.77 L 64.76 47.02 C 62.55 52.42 68.70 51.65 72.11 51.65 C 70.64 52.29 67.34 51.32 67.07 53.16 C 66.23 56.01 69.75 56.70 71.37 54.96 C 73.92 57.08 75.76 59.17 74.80 63.08 C 71.77 61.93 69.26 65.67 73.16 66.27 C 73.08 66.74 72.93 67.70 72.86 68.17 C 68.97 69.98 65.65 67.72 68.70 64.16 C 67.34 63.76 58.67 60.52 63.57 58.38 C 64.22 56.29 60.32 57.26 61.08 59.22 C 57.07 58.49 52.80 56.66 49.12 58.96 C 49.38 55.56 41.33 58.95 46.23 58.94 C 46.30 64.42 35.49 66.71 39.95 71.98 C 38.87 72.60 35.97 71.58 36.28 73.46 C 40.56 72.49 40.73 80.50 36.44 79.69 C 33.73 80.94 38.10 81.86 39.22 81.90 C 40.52 84.97 34.52 81.78 35.31 84.55 C 37.57 84.63 39.85 84.57 42.10 84.93 C 42.23 86.36 42.25 87.81 42.17 89.25 L 41.02 89.23 C 41.57 85.13 33.55 84.80 35.03 89.29 C 34.59 89.30 33.69 89.32 33.25 89.32 C 34.70 85.01 27.45 85.02 29.37 89.31 C 29.00 89.44 28.26 89.72 27.89 89.86 L 27.72 89.12 C 27.70 88.32 27.66 86.72 27.65 85.93 C 27.97 85.65 28.61 85.09 28.94 84.81 C 32.61 85.81 34.64 82.65 29.83 82.92 C 29.70 82.44 29.44 81.48 29.31 80.99 C 31.06 82.20 35.18 81.42 33.01 78.78 L 33.25 77.93 C 34.13 75.84 34.32 73.55 35.08 71.42 C 35.53 70.35 35.79 69.23 35.87 68.06 C 35.89 67.60 35.94 66.66 35.96 66.19 C 41.80 66.85 36.56 59.67 35.69 65.18 C 35.12 62.77 35.03 60.18 35.67 57.78 C 37.87 61.92 40.93 55.49 35.95 56.90 L 36.14 55.76 C 36.60 55.61 37.53 55.30 37.99 55.15 L 38.69 55.25 C 40.91 55.80 44.49 56.70 44.11 53.19 C 44.50 53.18 45.29 53.14 45.69 53.12 C 45.21 57.06 50.65 56.17 48.11 52.73 C 48.12 52.36 48.15 51.63 48.16 51.27 C 50.06 52.71 55.53 50.39 50.99 49.81 C 47.68 49.12 52.00 47.73 53.18 47.17 M 54.22 50.23 C 56.43 54.45 59.69 47.82 54.22 50.23 M 50.30 53.41 C 48.66 56.30 54.51 56.94 53.93 54.14 C 54.75 51.89 51.39 53.58 50.30 53.41 M 56.29 53.32 C 54.70 56.89 61.28 56.57 60.81 53.37 C 59.31 53.21 57.79 53.18 56.29 53.32 M 62.17 53.37 C 63.67 59.50 69.01 51.24 62.17 53.37 M 66.28 57.30 C 65.68 62.55 72.19 55.54 66.28 57.30 M 35.16 76.12 C 35.22 81.46 40.85 73.99 35.16 76.12 Z" />
</g>
<g id="#f4c041ff">
<path fill="#f4c041" opacity="1.00" d=" M 59.13 47.59 C 62.61 45.73 60.95 49.79 63.33 51.33 C 59.30 53.07 60.12 49.68 59.13 47.59 Z" />
<path fill="#f4c041" opacity="1.00" d=" M 55.23 77.23 C 58.87 76.83 57.81 81.75 59.96 83.38 C 59.98 83.70 60.04 84.36 60.06 84.68 C 57.25 83.78 54.06 85.29 52.23 82.17 C 53.16 80.48 54.14 78.82 55.23 77.23 Z" />
</g>
<g id="#232323ff">
<path fill="#232323" opacity="1.00" d=" M 16.19 47.89 C 19.11 45.85 23.94 48.89 21.48 52.42 C 18.81 54.62 11.57 51.80 16.19 47.89 M 17.22 49.35 C 16.91 54.02 23.45 48.09 17.22 49.35 Z" />
</g>
<g id="#efb328ff">
<path fill="#efb328" opacity="1.00" d=" M 54.22 50.23 C 59.69 47.82 56.43 54.45 54.22 50.23 Z" />
</g>
<g id="#a8833aff">
<path fill="#a8833a" opacity="1.00" d=" M 67.07 53.16 C 67.34 51.32 70.64 52.29 72.11 51.65 C 72.92 53.73 73.06 56.36 75.99 56.02 C 76.41 60.44 77.56 65.83 73.87 69.19 L 72.99 69.19 L 72.86 68.17 C 72.93 67.70 73.08 66.74 73.16 66.27 C 74.92 66.06 74.88 64.48 74.80 63.08 C 75.76 59.17 73.92 57.08 71.37 54.96 C 71.56 52.24 68.81 53.12 67.07 53.16 Z" />
</g>
<g id="#e8b129ff">
<path fill="#e8b129" opacity="1.00" d=" M 38.69 55.25 C 39.23 52.58 41.98 52.47 44.11 53.19 C 44.49 56.70 40.91 55.80 38.69 55.25 Z" />
</g>
<g id="#f6ae22ff">
<path fill="#f6ae22" opacity="1.00" d=" M 45.69 53.12 C 46.29 53.02 47.50 52.83 48.11 52.73 C 50.65 56.17 45.21 57.06 45.69 53.12 Z" />
</g>
<g id="#efae23ff">
<path fill="#efae23" opacity="1.00" d=" M 50.30 53.41 C 51.39 53.58 54.75 51.89 53.93 54.14 C 54.51 56.94 48.66 56.30 50.30 53.41 Z" />
</g>
<g id="#f3ae1eff">
<path fill="#f3ae1e" opacity="1.00" d=" M 56.29 53.32 C 57.79 53.18 59.31 53.21 60.81 53.37 C 61.28 56.57 54.70 56.89 56.29 53.32 Z" />
</g>
<g id="#f3ab24ff">
<path fill="#f3ab24" opacity="1.00" d=" M 62.17 53.37 C 69.01 51.24 63.67 59.50 62.17 53.37 Z" />
</g>
<g id="#e8af3aff">
<path fill="#e8af3a" opacity="1.00" d=" M 67.07 53.16 C 68.81 53.12 71.56 52.24 71.37 54.96 C 69.75 56.70 66.23 56.01 67.07 53.16 Z" />
</g>
<g id="#272729ff">
<path fill="#272729" opacity="1.00" d=" M 14.87 54.12 C 16.76 54.41 22.40 52.76 21.23 56.07 C 19.34 55.65 13.26 57.48 14.87 54.12 Z" />
</g>
<g id="#f0f0edfc">
<path fill="#f0f0ed" opacity="1.00" d=" M 4.38 63.10 C 4.91 60.14 6.54 57.47 7.80 54.76 C 8.33 55.10 9.39 55.77 9.92 56.11 C 5.51 66.66 2.73 79.56 9.43 89.65 C 13.60 90.33 17.86 90.16 22.06 89.97 L 22.12 90.86 C 17.80 90.82 13.42 90.46 9.13 90.94 C 10.95 95.96 16.69 97.52 19.98 101.22 C 11.77 98.07 4.59 90.13 3.27 81.08 C 1.92 75.06 2.82 68.95 4.38 63.10 Z" />
</g>
<g id="#bb8c41ff">
<path fill="#bb8c41" opacity="1.00" d=" M 35.87 68.06 C 32.70 65.90 32.38 56.34 36.14 55.76 L 35.95 56.90 L 35.67 57.78 C 35.03 60.18 35.12 62.77 35.69 65.18 L 35.96 66.19 C 35.94 66.66 35.89 67.60 35.87 68.06 Z" />
</g>
<g id="#252525ff">
<path fill="#252525" opacity="1.00" d=" M 19.14 57.26 C 22.92 56.11 21.13 59.64 19.51 60.90 C 25.38 60.66 19.67 64.15 16.84 63.24 C 11.63 63.41 21.04 58.01 15.96 59.56 C 12.00 58.55 17.30 56.97 19.14 57.26 Z" />
</g>
<g id="#f6af2bff">
<path fill="#f6af2b" opacity="1.00" d=" M 35.95 56.90 C 40.93 55.49 37.87 61.92 35.67 57.78 L 35.95 56.90 Z" />
</g>
<g id="#f3d66bff">
<path fill="#f3d66b" opacity="1.00" d=" M 46.23 58.94 C 41.33 58.95 49.38 55.56 49.12 58.96 C 52.80 56.66 57.07 58.49 61.08 59.22 C 60.32 57.26 64.22 56.29 63.57 58.38 C 58.67 60.52 67.34 63.76 68.70 64.16 C 65.65 67.72 68.97 69.98 72.86 68.17 L 72.99 69.19 C 71.75 69.83 70.45 70.73 68.99 70.14 C 69.85 73.82 68.33 79.13 72.87 80.57 C 69.02 79.75 71.11 84.88 68.11 85.18 L 67.24 85.02 C 67.20 84.26 67.13 82.76 67.10 82.00 C 67.06 81.50 66.98 80.51 66.94 80.01 C 66.20 77.92 66.54 75.53 65.25 73.65 L 65.10 73.01 C 65.72 69.88 61.22 69.60 60.44 72.12 C 60.26 71.66 59.92 70.73 59.74 70.27 C 63.27 72.26 65.25 66.05 61.02 67.02 L 60.05 67.10 C 63.71 62.06 55.87 66.74 57.84 62.97 C 56.57 62.65 55.27 62.52 53.95 62.59 C 53.65 66.86 48.49 61.79 49.83 66.92 C 46.93 66.43 43.94 73.56 47.86 73.47 C 45.93 73.79 43.94 74.33 43.76 76.62 C 42.08 79.10 43.04 82.24 42.88 85.03 L 42.10 84.93 C 39.85 84.57 37.57 84.63 35.31 84.55 C 34.52 81.78 40.52 84.97 39.22 81.90 C 38.10 81.86 33.73 80.94 36.44 79.69 C 40.73 80.50 40.56 72.49 36.28 73.46 C 35.97 71.58 38.87 72.60 39.95 71.98 C 35.49 66.71 46.30 64.42 46.23 58.94 Z" />
</g>
<g id="#f6b222ff">
<path fill="#f6b222" opacity="1.00" d=" M 66.28 57.30 C 72.19 55.54 65.68 62.55 66.28 57.30 Z" />
</g>
<g id="#29383bff">
<path fill="#29383b" opacity="1.00" d=" M 88.72 58.91 C 88.08 56.53 91.01 58.87 91.99 58.89 C 96.33 59.73 95.30 64.44 90.90 63.42 C 85.44 64.51 95.60 64.98 92.98 67.88 C 90.16 66.70 87.93 66.67 85.76 69.02 C 84.97 65.23 89.71 62.66 88.72 58.91 Z" />
</g>
<g id="#56565676">
<path fill="#565656" opacity="0.46" d=" M 3.27 81.08 C 1.86 76.52 0.92 67.24 4.38 63.10 C 2.82 68.95 1.92 75.06 3.27 81.08 Z" />
</g>
<g id="#f7aa31ff">
<path fill="#f7aa31" opacity="1.00" d=" M 35.69 65.18 C 36.56 59.67 41.80 66.85 35.96 66.19 L 35.69 65.18 Z" />
</g>
<g id="#a26d17ff">
<path fill="#a26d17" opacity="1.00" d=" M 49.83 66.92 C 48.49 61.79 53.65 66.86 53.95 62.59 C 55.27 62.52 56.57 62.65 57.84 62.97 C 55.87 66.74 63.71 62.06 60.05 67.10 C 57.46 67.12 53.88 63.60 52.19 67.41 C 48.71 70.37 50.34 79.86 43.76 76.62 C 43.94 74.33 45.93 73.79 47.86 73.47 C 43.94 73.56 46.93 66.43 49.83 66.92 Z" />
</g>
<g id="#f3af2bff">
<path fill="#f3af2b" opacity="1.00" d=" M 73.16 66.27 C 69.26 65.67 71.77 61.93 74.80 63.08 C 74.88 64.48 74.92 66.06 73.16 66.27 Z" />
</g>
<g id="#fad276ff">
<path fill="#fad276" opacity="1.00" d=" M 52.19 67.41 C 53.88 63.60 57.46 67.12 60.05 67.10 L 61.02 67.02 C 59.75 67.74 59.33 68.82 59.74 70.27 C 59.92 70.73 60.26 71.66 60.44 72.12 C 61.19 74.21 63.55 73.18 65.10 73.01 L 65.25 73.65 C 59.79 72.43 62.05 85.55 66.94 80.01 C 66.98 80.51 67.06 81.50 67.10 82.00 C 65.35 82.27 62.66 81.53 62.75 84.16 C 61.89 84.58 61.00 84.76 60.06 84.68 C 60.04 84.36 59.98 83.70 59.96 83.38 C 63.41 78.29 57.84 73.22 55.12 69.92 C 53.81 74.47 47.52 78.16 51.14 83.35 C 52.97 85.93 48.45 84.35 47.05 84.78 C 47.80 81.98 43.12 81.98 44.01 84.84 L 42.88 85.03 C 43.04 82.24 42.08 79.10 43.76 76.62 C 50.34 79.86 48.71 70.37 52.19 67.41 M 44.23 78.27 C 41.98 80.60 48.11 83.18 48.04 80.00 C 48.98 77.40 45.77 77.39 44.23 78.27 Z" />
</g>
<g id="#a76e19ff">
<path fill="#a76e19" opacity="1.00" d=" M 61.02 67.02 C 65.25 66.05 63.27 72.26 59.74 70.27 C 59.33 68.82 59.75 67.74 61.02 67.02 Z" />
</g>
<g id="#f4bb09ff">
<path fill="#f4bb09" opacity="1.00" d=" M 72.99 69.19 L 73.87 69.19 L 74.27 70.11 C 75.89 72.25 74.75 75.47 76.78 77.21 C 77.38 77.43 78.58 77.86 79.17 78.08 C 77.90 79.63 75.68 79.24 74.22 80.43 C 77.82 81.85 81.83 80.99 85.32 82.74 C 84.39 85.68 87.52 84.61 89.27 84.71 C 89.55 85.49 89.62 86.29 89.49 87.10 C 87.32 85.46 84.30 85.98 84.95 89.24 C 84.48 89.23 83.53 89.22 83.05 89.22 C 84.43 84.96 77.41 85.18 79.31 89.41 C 77.47 89.62 75.62 89.64 73.77 89.59 C 75.22 88.73 78.09 88.74 77.75 86.41 C 74.85 85.99 71.14 85.54 72.05 89.64 C 63.31 89.51 54.55 89.90 45.83 89.38 C 47.52 86.63 44.52 86.32 42.88 85.03 L 44.01 84.84 C 44.77 84.83 46.29 84.79 47.05 84.78 C 48.45 84.35 52.97 85.93 51.14 83.35 C 51.41 83.06 51.96 82.47 52.23 82.17 C 54.06 85.29 57.25 83.78 60.06 84.68 C 61.00 84.76 61.89 84.58 62.75 84.16 C 63.02 84.59 63.56 85.45 63.83 85.88 C 58.67 84.70 61.38 91.47 65.17 88.15 L 65.76 88.15 C 69.59 90.49 72.89 87.35 68.11 85.18 C 71.11 84.88 69.02 79.75 72.87 80.57 C 68.33 79.13 69.85 73.82 68.99 70.14 C 70.45 70.73 71.75 69.83 72.99 69.19 M 74.30 75.58 C 67.13 77.10 76.59 78.98 74.30 75.58 M 72.32 83.43 C 71.86 85.89 76.15 84.24 77.70 84.65 C 78.05 82.12 73.94 84.02 72.32 83.43 M 79.34 83.43 C 80.34 87.31 85.54 82.05 79.34 83.43 M 48.30 86.15 C 46.40 88.82 49.92 89.43 51.80 88.69 C 52.62 86.94 49.75 84.43 48.30 86.15 M 54.29 86.32 C 52.99 89.66 56.41 89.20 58.64 88.75 C 59.91 85.39 56.44 86.25 54.29 86.32 Z" />
</g>
<g id="#bb7517ff">
<path fill="#bb7517" opacity="1.00" d=" M 55.12 69.92 C 57.84 73.22 63.41 78.29 59.96 83.38 C 57.81 81.75 58.87 76.83 55.23 77.23 C 54.14 78.82 53.16 80.48 52.23 82.17 C 51.96 82.47 51.41 83.06 51.14 83.35 C 47.52 78.16 53.81 74.47 55.12 69.92 Z" />
</g>
<g id="#9f6f1aff">
<path fill="#9f6f1a" opacity="1.00" d=" M 60.44 72.12 C 61.22 69.60 65.72 69.88 65.10 73.01 C 63.55 73.18 61.19 74.21 60.44 72.12 Z" />
</g>
<g id="#f7ae32ff">
<path fill="#f7ae32" opacity="1.00" d=" M 35.16 76.12 C 40.85 73.99 35.22 81.46 35.16 76.12 Z" />
</g>
<g id="#b78f42ff">
<path fill="#b78f42" opacity="1.00" d=" M 27.49 84.50 C 27.23 80.22 27.82 75.86 33.25 77.93 L 33.01 78.78 C 31.79 79.31 29.27 79.10 29.31 80.99 C 29.44 81.48 29.70 82.44 29.83 82.92 C 29.61 83.39 29.16 84.34 28.94 84.81 C 28.61 85.09 27.97 85.65 27.65 85.93 C 22.89 84.86 22.85 91.04 27.72 89.12 L 27.89 89.86 C 25.98 90.29 24.00 90.03 22.06 89.97 C 20.88 85.70 23.39 83.69 27.49 84.50 Z" />
</g>
<g id="#ac771dff">
<path fill="#ac771d" opacity="1.00" d=" M 44.23 78.27 C 45.77 77.39 48.98 77.40 48.04 80.00 C 48.11 83.18 41.98 80.60 44.23 78.27 Z" />
</g>
<g id="#8d7153ff">
<path fill="#8d7153" opacity="1.00" d=" M 79.17 78.08 C 79.84 78.10 81.18 78.13 81.85 78.15 L 82.14 79.11 C 81.35 82.04 85.23 81.38 86.95 81.21 C 88.30 81.61 90.52 80.75 91.01 82.57 C 90.76 84.73 90.72 86.90 90.65 89.06 C 90.54 89.51 90.33 90.39 90.23 90.83 C 89.91 91.16 89.28 91.81 88.96 92.14 C 87.38 92.01 85.48 91.89 85.02 93.82 L 84.18 93.83 C 82.80 91.27 79.66 91.90 77.24 91.70 C 75.75 91.41 74.24 91.53 72.77 91.83 C 72.17 91.78 70.97 91.70 70.37 91.66 C 69.12 91.13 67.78 91.21 66.51 91.59 C 64.88 91.68 63.46 92.42 62.99 94.08 C 62.17 89.84 56.90 91.24 53.79 91.74 C 53.44 93.85 53.53 95.99 53.65 98.12 C 52.86 96.14 54.16 93.06 52.10 91.87 C 49.95 91.16 49.59 92.97 49.41 94.61 C 46.37 96.01 48.00 90.78 44.86 92.04 C 43.60 91.98 42.34 91.92 41.08 91.87 C 39.95 91.82 38.95 92.19 38.09 93.00 C 37.62 92.75 36.69 92.25 36.22 92.00 C 33.80 91.46 31.29 91.91 28.84 91.93 C 28.39 91.94 27.49 91.95 27.04 91.96 C 26.29 92.01 24.80 92.12 24.05 92.17 C 23.57 91.84 22.60 91.19 22.12 90.86 L 22.06 89.97 C 24.00 90.03 25.98 90.29 27.89 89.86 C 28.26 89.72 29.00 89.44 29.37 89.31 C 30.66 89.35 31.96 89.36 33.25 89.32 C 33.69 89.32 34.59 89.30 35.03 89.29 C 37.03 89.44 39.03 89.44 41.02 89.23 L 42.17 89.25 C 43.39 89.32 44.60 89.36 45.83 89.38 C 54.55 89.90 63.31 89.51 72.05 89.64 C 72.48 89.63 73.34 89.60 73.77 89.59 C 75.62 89.64 77.47 89.62 79.31 89.41 C 80.55 89.35 81.80 89.29 83.05 89.22 C 83.53 89.22 84.48 89.23 84.95 89.24 C 86.84 89.37 89.76 89.98 89.49 87.10 C 89.62 86.29 89.55 85.49 89.27 84.71 C 89.17 82.51 86.92 82.67 85.32 82.74 C 81.83 80.99 77.82 81.85 74.22 80.43 C 75.68 79.24 77.90 79.63 79.17 78.08 Z" />
</g>
<g id="#e6b02aff">
<path fill="#e6b02a" opacity="1.00" d=" M 29.31 80.99 C 29.27 79.10 31.79 79.31 33.01 78.78 C 35.18 81.42 31.06 82.20 29.31 80.99 Z" />
</g>
<g id="#e0d9ccff">
<path fill="#e0d9cc" opacity="1.00" d=" M 82.14 79.11 C 83.90 79.33 85.78 79.73 86.95 81.21 C 85.23 81.38 81.35 82.04 82.14 79.11 Z" />
</g>
<g id="#a7700bff">
<path fill="#a7700b" opacity="1.00" d=" M 62.75 84.16 C 62.66 81.53 65.35 82.27 67.10 82.00 C 67.13 82.76 67.20 84.26 67.24 85.02 C 66.72 86.05 66.23 87.10 65.76 88.15 L 65.17 88.15 C 64.83 87.58 64.17 86.45 63.83 85.88 C 63.56 85.45 63.02 84.59 62.75 84.16 Z" />
</g>
<g id="#e9ad33ff">
<path fill="#e9ad33" opacity="1.00" d=" M 28.94 84.81 C 29.16 84.34 29.61 83.39 29.83 82.92 C 34.64 82.65 32.61 85.81 28.94 84.81 Z" />
</g>
<g id="#a56a08ff">
<path fill="#a56a08" opacity="1.00" d=" M 44.01 84.84 C 43.12 81.98 47.80 81.98 47.05 84.78 C 46.29 84.79 44.77 84.83 44.01 84.84 Z" />
</g>
<g id="#f2bd24ff">
<path fill="#f2bd24" opacity="1.00" d=" M 85.32 82.74 C 86.92 82.67 89.17 82.51 89.27 84.71 C 87.52 84.61 84.39 85.68 85.32 82.74 Z" />
<path fill="#f2bd24" opacity="1.00" d=" M 72.05 89.64 C 71.14 85.54 74.85 85.99 77.75 86.41 C 78.09 88.74 75.22 88.73 73.77 89.59 C 73.34 89.60 72.48 89.63 72.05 89.64 Z" />
</g>
<g id="#e1dac8ff">
<path fill="#e1dac8" opacity="1.00" d=" M 91.01 82.57 C 93.95 83.45 93.47 90.37 90.65 89.06 C 90.72 86.90 90.76 84.73 91.01 82.57 Z" />
</g>
<g id="#f1b125ff">
<path fill="#f1b125" opacity="1.00" d=" M 42.10 84.93 L 42.88 85.03 C 44.52 86.32 47.52 86.63 45.83 89.38 C 44.60 89.36 43.39 89.32 42.17 89.25 C 42.25 87.81 42.23 86.36 42.10 84.93 Z" />
</g>
<g id="#ebb726ff">
<path fill="#ebb726" opacity="1.00" d=" M 67.24 85.02 L 68.11 85.18 C 72.89 87.35 69.59 90.49 65.76 88.15 C 66.23 87.10 66.72 86.05 67.24 85.02 Z" />
</g>
<g id="#edb42dff">
<path fill="#edb42d" opacity="1.00" d=" M 27.72 89.12 C 22.85 91.04 22.89 84.86 27.65 85.93 C 27.66 86.72 27.70 88.32 27.72 89.12 Z" />
</g>
<g id="#f8b41bff">
<path fill="#f8b41b" opacity="1.00" d=" M 29.37 89.31 C 27.45 85.02 34.70 85.01 33.25 89.32 C 31.96 89.36 30.66 89.35 29.37 89.31 Z" />
</g>
<g id="#f2ba1cff">
<path fill="#f2ba1c" opacity="1.00" d=" M 35.03 89.29 C 33.55 84.80 41.57 85.13 41.02 89.23 C 39.03 89.44 37.03 89.44 35.03 89.29 Z" />
</g>
<g id="#f3b729ff">
<path fill="#f3b729" opacity="1.00" d=" M 48.30 86.15 C 49.75 84.43 52.62 86.94 51.80 88.69 C 49.92 89.43 46.40 88.82 48.30 86.15 Z" />
</g>
<g id="#fbba30ff">
<path fill="#fbba30" opacity="1.00" d=" M 54.29 86.32 C 56.44 86.25 59.91 85.39 58.64 88.75 C 56.41 89.20 52.99 89.66 54.29 86.32 Z" />
<path fill="#fbba30" opacity="1.00" d=" M 79.31 89.41 C 77.41 85.18 84.43 84.96 83.05 89.22 C 81.80 89.29 80.55 89.35 79.31 89.41 Z" />
<path fill="#fbba30" opacity="1.00" d=" M 84.95 89.24 C 84.30 85.98 87.32 85.46 89.49 87.10 C 89.76 89.98 86.84 89.37 84.95 89.24 Z" />
</g>
<g id="#f4b72fff">
<path fill="#f4b72f" opacity="1.00" d=" M 65.17 88.15 C 61.38 91.47 58.67 84.70 63.83 85.88 C 64.17 86.45 64.83 87.58 65.17 88.15 Z" />
</g>
<g id="#586f9eff">
<path fill="#586f9e" opacity="1.00" d=" M 9.13 90.94 C 13.42 90.46 17.80 90.82 22.12 90.86 C 22.60 91.19 23.57 91.84 24.05 92.17 C 23.46 94.80 21.65 97.25 22.00 100.01 C 24.27 98.56 26.58 98.57 28.89 99.85 C 29.90 97.33 27.54 94.55 27.04 91.96 C 27.49 91.95 28.39 91.94 28.84 91.93 C 32.63 93.74 29.55 100.01 33.68 99.79 C 33.22 96.45 34.74 94.32 36.22 92.00 C 36.69 92.25 37.62 92.75 38.09 93.00 C 37.56 95.31 36.17 97.42 36.21 99.85 C 38.80 98.55 41.13 98.94 43.75 99.82 C 43.47 97.01 42.22 94.41 41.08 91.87 C 42.34 91.92 43.60 91.98 44.86 92.04 C 44.88 94.64 44.46 97.32 45.28 99.83 C 47.50 99.95 48.94 93.43 49.48 98.89 C 52.85 102.29 52.26 94.19 52.10 91.87 C 54.16 93.06 52.86 96.14 53.65 98.12 C 57.83 102.99 62.98 97.01 60.75 92.12 C 56.67 91.12 59.35 95.86 58.09 98.00 C 53.84 98.48 58.29 91.12 53.79 91.74 C 56.90 91.24 62.17 89.84 62.99 94.08 C 62.59 96.17 60.23 101.72 64.16 98.96 C 67.46 98.37 74.96 101.94 75.96 98.06 C 71.81 98.73 72.26 94.64 72.77 91.83 C 74.24 91.53 75.75 91.41 77.24 91.70 C 77.67 94.11 75.65 99.02 78.81 99.77 C 79.55 96.56 83.64 97.15 84.18 93.83 L 85.02 93.82 C 85.24 95.55 81.75 100.85 85.39 99.31 C 87.30 97.42 89.61 101.18 91.31 99.05 C 90.56 96.74 89.56 94.50 88.96 92.14 C 89.28 91.81 89.91 91.16 90.23 90.83 C 95.21 90.62 100.21 90.59 105.20 90.78 C 101.32 96.15 95.09 101.62 88.15 101.76 C 79.50 101.36 70.83 101.59 62.18 101.61 C 49.27 101.25 36.34 101.42 23.43 101.47 C 23.27 101.75 22.94 102.30 22.78 102.57 C 21.77 103.11 20.58 101.99 19.98 101.22 C 16.69 97.52 10.95 95.96 9.13 90.94 Z" />
<path fill="#586f9e" opacity="1.00" d=" M 39.18 95.19 C 43.67 94.13 38.24 99.77 39.18 95.19 Z" />
</g>
<g id="#60747cff">
<path fill="#60747c" opacity="1.00" d=" M 66.51 91.59 C 67.78 91.21 69.12 91.13 70.37 91.66 C 70.24 93.86 70.24 96.06 70.06 98.26 C 67.68 97.28 67.85 93.64 66.51 91.59 Z" />
</g>
<g id="#e3f7ffff">
<path fill="#e3f7ff" opacity="1.00" d=" M 24.05 92.17 C 24.80 92.12 26.29 92.01 27.04 91.96 C 27.54 94.55 29.90 97.33 28.89 99.85 C 26.58 98.57 24.27 98.56 22.00 100.01 C 21.65 97.25 23.46 94.80 24.05 92.17 Z" />
</g>
<g id="#eefaffff">
<path fill="#eefaff" opacity="1.00" d=" M 28.84 91.93 C 31.29 91.91 33.80 91.46 36.22 92.00 C 34.74 94.32 33.22 96.45 33.68 99.79 C 29.55 100.01 32.63 93.74 28.84 91.93 Z" />
<path fill="#eefaff" opacity="1.00" d=" M 38.09 93.00 C 38.95 92.19 39.95 91.82 41.08 91.87 C 42.22 94.41 43.47 97.01 43.75 99.82 C 41.13 98.94 38.80 98.55 36.21 99.85 C 36.17 97.42 37.56 95.31 38.09 93.00 M 39.18 95.19 C 38.24 99.77 43.67 94.13 39.18 95.19 Z" />
</g>
<g id="#eafaffff">
<path fill="#eafaff" opacity="1.00" d=" M 44.86 92.04 C 48.00 90.78 46.37 96.01 49.41 94.61 C 49.59 92.97 49.95 91.16 52.10 91.87 C 52.26 94.19 52.85 102.29 49.48 98.89 C 48.94 93.43 47.50 99.95 45.28 99.83 C 44.46 97.32 44.88 94.64 44.86 92.04 Z" />
</g>
<g id="#f3ffffff">
<path fill="#f3ffff" opacity="1.00" d=" M 53.79 91.74 C 58.29 91.12 53.84 98.48 58.09 98.00 C 59.35 95.86 56.67 91.12 60.75 92.12 C 62.98 97.01 57.83 102.99 53.65 98.12 C 53.53 95.99 53.44 93.85 53.79 91.74 Z" />
</g>
<g id="#effbffff">
<path fill="#effbff" opacity="1.00" d=" M 62.99 94.08 C 63.46 92.42 64.88 91.68 66.51 91.59 C 67.85 93.64 67.68 97.28 70.06 98.26 C 70.24 96.06 70.24 93.86 70.37 91.66 C 70.97 91.70 72.17 91.78 72.77 91.83 C 72.26 94.64 71.81 98.73 75.96 98.06 C 74.96 101.94 67.46 98.37 64.16 98.96 C 60.23 101.72 62.59 96.17 62.99 94.08 Z" />
</g>
<g id="#e7f1fcff">
<path fill="#e7f1fc" opacity="1.00" d=" M 77.24 91.70 C 79.66 91.90 82.80 91.27 84.18 93.83 C 83.64 97.15 79.55 96.56 78.81 99.77 C 75.65 99.02 77.67 94.11 77.24 91.70 Z" />
</g>
<g id="#e7f4feff">
<path fill="#e7f4fe" opacity="1.00" d=" M 85.02 93.82 C 85.48 91.89 87.38 92.01 88.96 92.14 C 89.56 94.50 90.56 96.74 91.31 99.05 C 89.61 101.18 87.30 97.42 85.39 99.31 C 81.75 100.85 85.24 95.55 85.02 93.82 Z" />
</g>
<g id="#c3dde3ff">
<path fill="#c3dde3" opacity="1.00" d=" M 57.28 114.01 C 57.83 109.17 54.04 99.92 62.18 101.61 C 70.83 101.59 79.50 101.36 88.15 101.76 C 88.04 102.17 87.81 102.99 87.70 103.41 C 77.10 105.49 67.02 109.43 57.28 114.01 Z" />
</g>
</svg>
