<?xml version="1.0" encoding="UTF-8" standalone="no" ?>
<!DOCTYPE svg PUBLIC "-//W3C//DTD SVG 1.1//EN" "http://www.w3.org/Graphics/SVG/1.1/DTD/svg11.dtd">
<svg xmlns="http://www.w3.org/2000/svg" xmlns:xlink="http://www.w3.org/1999/xlink" version="1.1" width="2048" height="171" viewBox="0 0 2048 171" xml:space="preserve">
<desc>Created with Fabric.js 4.6.0</desc>
<defs>
</defs>
<g transform="matrix(1 0 0 1 80.37 86.63)" id="YKChlHDghLiZEoex6Ed-Q"  >
<g style="" vector-effect="non-scaling-stroke"   >
		<g transform="matrix(1.33 0 0 1.33 -34.44 -49.51)" id="DgbXsALQeD4FDQKnRuyGI"  >
<path style="stroke: none; stroke-width: 1; stroke-dasharray: none; stroke-linecap: butt; stroke-dashoffset: 0; stroke-linejoin: miter; stroke-miterlimit: 4; fill: rgb(239,239,239); fill-rule: nonzero; opacity: 1;" vector-effect="non-scaling-stroke"  transform=" translate(-33.67, -25.37)" d="M 11.02 10.86 C 25.86 9.82 40.49 7.85 54.87 4.35 C 55.23 4.79 55.95 5.69 56.32 6.13 C 42.95 12.33 27.67 12.68 13.18 13.38 C 15.37 23.94 19.89 35.89 14.29 46.38 L 13.32 46.21 C 14.31 39.66 15.97 32.37 13.83 26.07 C 12.94 24.78 12.72 23.21 12.29 21.74 C 10.88 18.31 12.12 14.48 11.02 10.86 Z" stroke-linecap="round" />
</g>
		<g transform="matrix(1.33 0 0 1.33 62.41 -8.81)" id="lqJB3NHBZuidoPRE_8XO0"  >
<path style="stroke: none; stroke-width: 1; stroke-dasharray: none; stroke-linecap: butt; stroke-dashoffset: 0; stroke-linejoin: miter; stroke-miterlimit: 4; fill: rgb(239,239,239); fill-rule: nonzero; opacity: 1;" vector-effect="non-scaling-stroke"  transform=" translate(-106.31, -55.89)" d="M 100.26 25.16 C 100.59 25.4 101.26 25.89 101.59 26.14 C 101.62 31.75 100.16 38.12 103.19 43.18 C 107.86 56.91 117.68 72.23 109.75 86.63 C 108.64 84.34 110 81.88 110.71 79.68 C 112.19 71.15 109.7 62.32 105.23 55 C 99.94 45.99 99.26 35.33 100.26 25.16 Z" stroke-linecap="round" />
</g>
		<g transform="matrix(1.33 0 0 1.33 6.14 -74.5)" id="TJ4RH-Ye1OndGfsP2xMvE"  >
<path style="stroke: none; stroke-width: 1; stroke-dasharray: none; stroke-linecap: butt; stroke-dashoffset: 0; stroke-linejoin: miter; stroke-miterlimit: 4; fill: rgb(183,192,193); fill-rule: nonzero; opacity: 0.93;" vector-effect="non-scaling-stroke"  transform=" translate(-64.11, -6.63)" d="M 54.87 4.35 C 57.99 2.38 61.74 5.07 65.04 5.59 C 63.8 5.51 62.81 5.82 62.06 6.53 C 65.89 7.11 69.59 8.26 73.34 9.17 C 68.25 10.81 62.3 7.49 57.06 6.34 L 56.32 6.13 C 55.95 5.69 55.23 4.79 54.87 4.35 Z" stroke-linecap="round" />
</g>
		<g transform="matrix(1.33 0 0 1.33 -37.58 -19.15)" id="fZbsM2_LeaPFHodoocMYp"  >
<path style="stroke: none; stroke-width: 1; stroke-dasharray: none; stroke-linecap: butt; stroke-dashoffset: 0; stroke-linejoin: miter; stroke-miterlimit: 4; fill: rgb(253,253,252); fill-rule: nonzero; opacity: 1;" vector-effect="non-scaling-stroke"  transform=" translate(-31.32, -48.13)" d="M 56.32 6.13 L 57.06 6.34 C 57.06 11.87 56.86 17.39 57.21 22.91 C 56.85 23.48 56.14 24.63 55.78 25.2 L 55.26 24.95 C 53.88 22.99 50.82 27.28 50.66 23.94 C 50.32 21.44 53.59 23.34 54.93 22.81 C 54 20.09 50.49 20.45 48.62 21.97 C 48.06 23 47.63 24.11 47.26 25.23 C 47.37 21.07 42.52 20.97 44.82 25.13 C 44.48 30.98 40.44 18.22 40.15 24.87 C 39.96 25.16 39.58 25.74 39.4 26.03 C 35.13 22.74 30.36 27.65 35.1 31.16 C 34.62 31.04 33.67 30.8 33.19 30.68 C 30.63 28.35 28.89 27.7 26.49 30.95 C 28.39 34.14 31.62 36.72 34.42 32.87 C 35.73 32.19 37.39 31.11 38.46 32.82 C 26.65 39.3 19.72 55.35 27.72 67.37 C 29.55 71.02 34.31 73.16 33.25 77.93 C 27.82 75.86 27.23 80.22 27.49 84.5 C 23.39 83.69 20.88 85.7 22.06 89.97 C 17.86 90.16 13.6 90.33 9.43 89.65 C 2.73 79.56 5.51 66.66 9.92 56.11 C 10.94 52.68 12.93 49.67 14.29 46.38 C 19.89 35.89 15.37 23.94 13.18 13.38 C 27.67 12.68 42.95 12.33 56.32 6.13 M 23.23 35.41 C 20.24 35.91 18 40.26 22.3 40.71 C 27.41 43.96 14.41 40.13 17.36 44.7 C 19.1 46.31 24.14 50.12 22.45 45.19 C 25.66 42.74 30.38 35.85 23.23 35.41 M 16.19 47.89 C 11.57 51.8 18.81 54.62 21.48 52.42 C 23.94 48.89 19.11 45.85 16.19 47.89 M 14.87 54.12 C 13.26 57.48 19.34 55.65 21.23 56.07 C 22.4 52.76 16.76 54.41 14.87 54.12 M 19.14 57.26 C 17.3 56.97 12 58.55 15.96 59.56 C 21.04 58.01 11.63 63.41 16.84 63.24 C 19.67 64.15 25.38 60.66 19.51 60.9 C 21.13 59.64 22.92 56.11 19.14 57.26 M 19.17 64.31 C 15.06 64.77 16.69 68.26 19.95 66.27 C 27.32 65.73 13.33 69.91 19.96 70.27 C 25.85 70.48 24.84 61.68 19.17 64.31 Z" stroke-linecap="round" />
</g>
		<g transform="matrix(1.33 0 0 1.33 9.95 -2.15)" id="qdEvRDmHQkgEMhmmZDjDz"  >
<path style="stroke: none; stroke-width: 1; stroke-dasharray: none; stroke-linecap: butt; stroke-dashoffset: 0; stroke-linejoin: miter; stroke-miterlimit: 4; fill: rgb(195,221,228); fill-rule: nonzero; opacity: 1;" vector-effect="non-scaling-stroke"  transform=" translate(-66.96, -60.89)" d="M 57.06 6.34 C 62.3 7.49 68.25 10.81 73.34 9.17 C 80.92 10.39 88.61 11.52 96.28 10.28 C 99.58 9.81 106.29 8.83 104.24 14.29 C 100.51 8.72 102.43 15.86 100.32 18.36 C 97.81 30.15 97.45 42.96 102.97 53.99 C 102.99 54.98 105.67 57.44 105.23 55 C 109.7 62.32 112.19 71.15 110.71 79.68 C 110 81.88 108.64 84.34 109.75 86.63 C 103.07 102.36 84.34 106.18 69.68 110.61 C 64.07 111.44 59.09 117.58 53.3 114.66 C 43.71 109.4 31.88 108.73 22.78 102.57 C 34.37 106.15 46.36 108.72 57.28 114.01 C 67.02 109.43 77.1 105.49 87.7 103.41 C 87.81 102.99 88.04 102.17 88.15 101.76 C 95.09 101.62 101.32 96.15 105.2 90.78 C 100.21 90.59 95.21 90.62 90.23 90.83 C 90.33 90.39 90.54 89.51 90.65 89.06 C 93.47 90.37 93.95 83.45 91.01 82.57 C 90.52 80.75 88.3 81.61 86.95 81.21 C 85.78 79.73 83.9 79.33 82.14 79.11 L 81.85 78.15 C 81.67 76.4 79.53 76.35 78.33 75.59 C 80.19 72.75 82.49 70.2 85.76 69.02 C 87.93 66.67 90.16 66.7 92.98 67.88 C 95.6 64.98 85.44 64.51 90.9 63.42 C 95.3 64.44 96.33 59.73 91.99 58.89 C 91.79 58.57 91.39 57.94 91.18 57.62 C 92.1 56.3 89.14 53.87 92.01 53.99 C 95.87 52.7 91.23 58.82 94.94 57.1 C 97.3 54.8 94.81 51.53 91.93 51.72 L 91.82 51.12 C 94.31 50.51 96.42 48.76 93.86 46.12 C 90.59 44.41 91.54 48.85 89.32 49.07 C 90.46 47.32 90.32 45.9 87.8 46.73 L 87.68 46.01 C 89.3 44.84 94.7 45.01 92.41 42.03 L 92 41.36 C 91.22 38.35 89.06 35.86 86.03 38.2 C 84.69 37.98 83.69 37.16 82.91 36.09 C 86.9 30.35 81.29 29.73 76.99 32.15 L 77.08 31.16 C 81.82 29.52 79.77 26.21 75.92 29.29 C 77.93 23.46 73.19 25.95 72.93 30.14 C 72.4 30.03 71.36 29.81 70.83 29.7 C 71.58 27.82 72.98 26.15 73.03 24.04 C 70.38 23.43 70.05 26.75 68.65 28.23 C 66.82 29.52 67.12 27.08 66.87 25.86 C 66.63 23.7 69.85 24.85 69.72 23.16 C 67.67 22.78 65.06 21.01 63.22 22.15 C 65.11 23.44 64.95 25.28 63.88 27.13 C 63.37 26.36 62.84 25.59 62.3 24.82 C 62.06 21.94 58.7 19.17 57.21 22.91 C 56.86 17.39 57.06 11.87 57.06 6.34 Z" stroke-linecap="round" />
</g>
		<g transform="matrix(1.33 0 0 1.33 26.23 -72.4)" id="piKP02KkBzGY6xZMgt-rA"  >
<path style="stroke: none; stroke-width: 1; stroke-dasharray: none; stroke-linecap: butt; stroke-dashoffset: 0; stroke-linejoin: miter; stroke-miterlimit: 4; fill: rgb(248,253,252); fill-rule: nonzero; opacity: 1;" vector-effect="non-scaling-stroke"  transform=" translate(-79.17, -8.2)" d="M 62.06 6.53 C 62.81 5.82 63.8 5.51 65.04 5.59 C 65.72 5.78 67.08 6.17 67.75 6.36 C 77.01 9.19 86.73 9.63 96.28 10.28 C 88.61 11.52 80.92 10.39 73.34 9.17 C 69.59 8.26 65.89 7.11 62.06 6.53 Z" stroke-linecap="round" />
</g>
		<g transform="matrix(1.33 0 0 1.33 -61.66 -34)" id="EDB1FftmaCrkfDpryEw5l"  >
<path style="stroke: none; stroke-width: 1; stroke-dasharray: none; stroke-linecap: butt; stroke-dashoffset: 0; stroke-linejoin: miter; stroke-miterlimit: 4; fill: rgb(248,253,252); fill-rule: nonzero; opacity: 1;" vector-effect="non-scaling-stroke"  transform=" translate(-13.26, -37)" d="M 13.83 26.07 C 15.97 32.37 14.31 39.66 13.32 46.21 C 12.98 48.4 10.92 48.66 11.9 46.07 C 14.16 39.61 13.68 32.78 13.83 26.07 Z" stroke-linecap="round" />
</g>
		<g transform="matrix(1.33 0 0 1.33 -30.57 -46.01)" id="Lqp9l_9cGwXRa7hHP-9ox"  >
<path style="stroke: none; stroke-width: 1; stroke-dasharray: none; stroke-linecap: butt; stroke-dashoffset: 0; stroke-linejoin: miter; stroke-miterlimit: 4; fill: rgb(248,253,252); fill-rule: nonzero; opacity: 1;" vector-effect="non-scaling-stroke"  transform=" translate(-36.57, -27.99)" d="M 35.43 27.15 C 40.04 25.52 36.41 32.25 35.43 27.15 Z" stroke-linecap="round" />
</g>
		<g transform="matrix(1.33 0 0 1.33 -47.54 -32.3)" id="YffJCwF3n_5MjiCaI-8yv"  >
<path style="stroke: none; stroke-width: 1; stroke-dasharray: none; stroke-linecap: butt; stroke-dashoffset: 0; stroke-linejoin: miter; stroke-miterlimit: 4; fill: rgb(248,253,252); fill-rule: nonzero; opacity: 1;" vector-effect="non-scaling-stroke"  transform=" translate(-23.85, -38.27)" d="M 23.08 37.3 C 28.94 38.92 20.33 40.71 23.08 37.3 Z" stroke-linecap="round" />
</g>
		<g transform="matrix(1.33 0 0 1.33 -22.69 60.26)" id="DphYNGedLItDQhjRJKVcy"  >
<path style="stroke: none; stroke-width: 1; stroke-dasharray: none; stroke-linecap: butt; stroke-dashoffset: 0; stroke-linejoin: miter; stroke-miterlimit: 4; fill: rgb(248,253,252); fill-rule: nonzero; opacity: 1;" vector-effect="non-scaling-stroke"  transform=" translate(-42.48, -107.7)" d="M 23.43 101.47 C 36.34 101.42 49.27 101.25 62.18 101.61 C 54.04 99.92 57.83 109.17 57.28 114.01 C 46.36 108.72 34.37 106.15 22.78 102.57 C 22.94 102.3 23.27 101.75 23.43 101.47 Z" stroke-linecap="round" />
</g>
		<g transform="matrix(1.33 0 0 1.33 36.01 -69.57)" id="cYnWRNNJ2GCz0VNO101M_"  >
<path style="stroke: none; stroke-width: 1; stroke-dasharray: none; stroke-linecap: butt; stroke-dashoffset: 0; stroke-linejoin: miter; stroke-miterlimit: 4; fill: rgb(93,94,95); fill-rule: nonzero; opacity: 0.44;" vector-effect="non-scaling-stroke"  transform=" translate(-86.51, -10.32)" d="M 67.75 6.36 C 79.22 7.09 90.43 10.42 102.06 9.23 C 105.51 8.32 106.07 12.19 104.24 14.29 C 106.29 8.83 99.58 9.81 96.28 10.28 C 86.73 9.63 77.01 9.19 67.75 6.36 Z" stroke-linecap="round" />
</g>
		<g transform="matrix(1.33 0 0 1.33 56.57 -37.82)" id="UAkCXgO-kVuyYehwIeS3P"  >
<path style="stroke: none; stroke-width: 1; stroke-dasharray: none; stroke-linecap: butt; stroke-dashoffset: 0; stroke-linejoin: miter; stroke-miterlimit: 4; fill: rgb(180,190,193); fill-rule: nonzero; opacity: 0.97;" vector-effect="non-scaling-stroke"  transform=" translate(-101.92, -34.13)" d="M 100.32 18.36 C 102.43 15.86 100.51 8.72 104.24 14.29 C 104.1 14.67 103.83 15.42 103.7 15.8 C 102.61 19.16 102.19 22.67 101.59 26.14 C 101.26 25.89 100.59 25.4 100.26 25.16 C 99.26 35.33 99.94 45.99 105.23 55 C 105.67 57.44 102.99 54.98 102.97 53.99 C 97.45 42.96 97.81 30.15 100.32 18.36 Z" stroke-linecap="round" />
</g>
		<g transform="matrix(1.33 0 0 1.33 57.31 -44.01)" id="VNHNf-q9_qvuzFLulSGnf"  >
<path style="stroke: none; stroke-width: 1; stroke-dasharray: none; stroke-linecap: butt; stroke-dashoffset: 0; stroke-linejoin: miter; stroke-miterlimit: 4; fill: rgb(96,97,98); fill-rule: nonzero; opacity: 0.47;" vector-effect="non-scaling-stroke"  transform=" translate(-102.48, -29.49)" d="M 101.59 26.14 C 102.19 22.67 102.61 19.16 103.7 15.8 C 102.78 24.89 101.8 34.05 103.19 43.18 C 100.16 38.12 101.62 31.75 101.59 26.14 Z" stroke-linecap="round" />
</g>
		<g transform="matrix(1.33 0 0 1.33 -10.32 -51.5)" id="sfNuDm0bKH5PVeAuIpD7x"  >
<path style="stroke: none; stroke-width: 1; stroke-dasharray: none; stroke-linecap: butt; stroke-dashoffset: 0; stroke-linejoin: miter; stroke-miterlimit: 4; fill: rgb(38,36,46); fill-rule: nonzero; opacity: 1;" vector-effect="non-scaling-stroke"  transform=" translate(-51.76, -23.87)" d="M 48.62 21.97 C 50.49 20.45 54 20.09 54.93 22.81 C 53.59 23.34 50.32 21.44 50.66 23.94 C 50.82 27.28 53.88 22.99 55.26 24.95 C 53.32 28.96 46.67 26.42 48.62 21.97 Z" stroke-linecap="round" />
</g>
		<g transform="matrix(1.33 0 0 1.33 9.3 -50.1)" id="srPdSluAIZBIiSMRTFftn"  >
<path style="stroke: none; stroke-width: 1; stroke-dasharray: none; stroke-linecap: butt; stroke-dashoffset: 0; stroke-linejoin: miter; stroke-miterlimit: 4; fill: rgb(38,36,46); fill-rule: nonzero; opacity: 1;" vector-effect="non-scaling-stroke"  transform=" translate(-66.47, -24.93)" d="M 63.22 22.15 C 65.06 21.01 67.67 22.78 69.72 23.16 C 69.85 24.85 66.63 23.7 66.87 25.86 C 66.82 27.37 64.72 29.25 63.88 27.13 C 64.95 25.28 65.11 23.44 63.22 22.15 Z" stroke-linecap="round" />
</g>
		<g transform="matrix(1.33 0 0 1.33 22.51 -44.75)" id="lp338UkbGOp_2i4RGO2C1"  >
<path style="stroke: none; stroke-width: 1; stroke-dasharray: none; stroke-linecap: butt; stroke-dashoffset: 0; stroke-linejoin: miter; stroke-miterlimit: 4; fill: rgb(38,36,46); fill-rule: nonzero; opacity: 1;" vector-effect="non-scaling-stroke"  transform=" translate(-76.38, -28.94)" d="M 72.93 30.14 C 73.19 25.95 77.93 23.46 75.92 29.29 C 79.77 26.21 81.82 29.52 77.08 31.16 C 75.51 32.49 73.47 32.35 72.93 30.14 Z" stroke-linecap="round" />
</g>
		<g transform="matrix(1.33 0 0 1.33 -50.07 -27.98)" id="xwDl0SEoU8BBgmORQrMQs"  >
<path style="stroke: none; stroke-width: 1; stroke-dasharray: none; stroke-linecap: butt; stroke-dashoffset: 0; stroke-linejoin: miter; stroke-miterlimit: 4; fill: rgb(38,36,46); fill-rule: nonzero; opacity: 1;" vector-effect="non-scaling-stroke"  transform=" translate(-21.95, -41.52)" d="M 23.23 35.41 C 30.38 35.85 25.66 42.74 22.45 45.19 C 24.14 50.12 19.1 46.31 17.36 44.7 C 14.41 40.13 27.41 43.96 22.3 40.71 C 18 40.26 20.24 35.91 23.23 35.41 M 23.08 37.3 C 20.33 40.71 28.94 38.92 23.08 37.3 Z" stroke-linecap="round" />
</g>
		<g transform="matrix(1.33 0 0 1.33 37.93 -30.48)" id="a2c_j5p2ZTt7n0pFXfhtE"  >
<path style="stroke: none; stroke-width: 1; stroke-dasharray: none; stroke-linecap: butt; stroke-dashoffset: 0; stroke-linejoin: miter; stroke-miterlimit: 4; fill: rgb(38,36,46); fill-rule: nonzero; opacity: 1;" vector-effect="non-scaling-stroke"  transform=" translate(-87.95, -39.64)" d="M 86.03 38.2 C 89.06 35.86 91.22 38.35 92 41.36 C 90.44 40.94 88.32 39.04 88.78 42.01 C 86.45 40.06 80.84 41.15 86.03 38.2 Z" stroke-linecap="round" />
</g>
		<g transform="matrix(1.33 0 0 1.33 43.64 -10.45)" id="ThwVdwFBhz6hAmaxexHR6"  >
<path style="stroke: none; stroke-width: 1; stroke-dasharray: none; stroke-linecap: butt; stroke-dashoffset: 0; stroke-linejoin: miter; stroke-miterlimit: 4; fill: rgb(38,36,46); fill-rule: nonzero; opacity: 1;" vector-effect="non-scaling-stroke"  transform=" translate(-92.23, -54.67)" d="M 91.18 57.62 C 86.96 57.51 88.38 51.77 91.93 51.72 C 94.81 51.53 97.3 54.8 94.94 57.1 C 91.23 58.82 95.87 52.7 92.01 53.99 C 89.14 53.87 92.1 56.3 91.18 57.62 Z" stroke-linecap="round" />
</g>
		<g transform="matrix(1.33 0 0 1.33 -52.23 6.06)" id="0rK4Lt1u8iETwzppAw_um"  >
<path style="stroke: none; stroke-width: 1; stroke-dasharray: none; stroke-linecap: butt; stroke-dashoffset: 0; stroke-linejoin: miter; stroke-miterlimit: 4; fill: rgb(38,36,46); fill-rule: nonzero; opacity: 1;" vector-effect="non-scaling-stroke"  transform=" translate(-20.33, -67.05)" d="M 19.17 64.31 C 24.84 61.68 25.85 70.48 19.96 70.27 C 13.33 69.91 27.32 65.73 19.95 66.27 C 16.69 68.26 15.06 64.77 19.17 64.31 Z" stroke-linecap="round" />
</g>
		<g transform="matrix(1.33 0 0 1.33 -0.44 -51.32)" id="mQRGwELfSu_yzkyXq2cjk"  >
<path style="stroke: none; stroke-width: 1; stroke-dasharray: none; stroke-linecap: butt; stroke-dashoffset: 0; stroke-linejoin: miter; stroke-miterlimit: 4; fill: rgb(35,47,40); fill-rule: nonzero; opacity: 1;" vector-effect="non-scaling-stroke"  transform=" translate(-59.17, -24.01)" d="M 57.21 22.91 C 58.7 19.17 62.06 21.94 62.3 24.82 C 64.09 28.24 55.87 26.84 55.78 25.2 C 56.14 24.63 56.85 23.48 57.21 22.91 Z" stroke-linecap="round" />
</g>
		<g transform="matrix(1.33 0 0 1.33 15.12 -47.54)" id="8Fietc8NTeSwq677vcylC"  >
<path style="stroke: none; stroke-width: 1; stroke-dasharray: none; stroke-linecap: butt; stroke-dashoffset: 0; stroke-linejoin: miter; stroke-miterlimit: 4; fill: rgb(35,47,40); fill-rule: nonzero; opacity: 1;" vector-effect="non-scaling-stroke"  transform=" translate(-70.84, -26.85)" d="M 68.65 28.23 C 70.05 26.75 70.38 23.43 73.03 24.04 C 72.98 26.15 71.58 27.82 70.83 29.7 C 69.65 29.86 68.93 29.37 68.65 28.23 Z" stroke-linecap="round" />
</g>
		<g transform="matrix(1.33 0 0 1.33 40.29 -24.64)" id="2THdeWxcdEn73cKlAY4rU"  >
<path style="stroke: none; stroke-width: 1; stroke-dasharray: none; stroke-linecap: butt; stroke-dashoffset: 0; stroke-linejoin: miter; stroke-miterlimit: 4; fill: rgb(35,47,40); fill-rule: nonzero; opacity: 1;" vector-effect="non-scaling-stroke"  transform=" translate(-89.72, -44.02)" d="M 92.41 42.03 C 94.7 45.01 89.3 44.84 87.68 46.01 C 83.65 43.61 90.82 43.19 92.41 42.03 Z" stroke-linecap="round" />
</g>
		<g transform="matrix(1.33 0 0 1.33 -64.61 -31.43)" id="FORVltJQip8y8y3y3Ncek"  >
<path style="stroke: none; stroke-width: 1; stroke-dasharray: none; stroke-linecap: butt; stroke-dashoffset: 0; stroke-linejoin: miter; stroke-miterlimit: 4; fill: rgb(154,154,154); fill-rule: nonzero; opacity: 0.75;" vector-effect="non-scaling-stroke"  transform=" translate(-11.04, -38.92)" d="M 12.29 21.74 C 12.72 23.21 12.94 24.78 13.83 26.07 C 13.68 32.78 14.16 39.61 11.9 46.07 C 10.92 48.66 12.98 48.4 13.32 46.21 L 14.29 46.38 C 12.93 49.67 10.94 52.68 9.92 56.11 C 9.39 55.77 8.33 55.1 7.8 54.76 C 12.6 44.46 13.13 32.96 12.29 21.74 Z" stroke-linecap="round" />
</g>
		<g transform="matrix(1.33 0 0 1.33 -21.06 -49.78)" id="Ph_c3-Wf3lNZm4nnEIolr"  >
<path style="stroke: none; stroke-width: 1; stroke-dasharray: none; stroke-linecap: butt; stroke-dashoffset: 0; stroke-linejoin: miter; stroke-miterlimit: 4; fill: rgb(33,33,36); fill-rule: nonzero; opacity: 1;" vector-effect="non-scaling-stroke"  transform=" translate(-43.71, -25.16)" d="M 44.82 25.13 C 42.52 20.97 47.37 21.07 47.26 25.23 C 47.32 29.7 40.46 28.95 40.15 24.87 C 40.44 18.22 44.48 30.98 44.82 25.13 Z" stroke-linecap="round" />
</g>
		<g transform="matrix(1.33 0 0 1.33 3.26 -16.59)" id="SvMS8EjSzXJuysoCknG8Z"  >
<path style="stroke: none; stroke-width: 1; stroke-dasharray: none; stroke-linecap: butt; stroke-dashoffset: 0; stroke-linejoin: miter; stroke-miterlimit: 4; fill: rgb(217,230,221); fill-rule: nonzero; opacity: 1;" vector-effect="non-scaling-stroke"  transform=" translate(-61.94, -50.06)" d="M 47.26 25.23 C 47.63 24.11 48.06 23 48.62 21.97 C 46.67 26.42 53.32 28.96 55.26 24.95 L 55.78 25.2 C 55.87 26.84 64.09 28.24 62.3 24.82 C 62.84 25.59 63.37 26.36 63.88 27.13 C 64.72 29.25 66.82 27.37 66.87 25.86 C 67.12 27.08 66.82 29.52 68.65 28.23 C 68.93 29.37 69.65 29.86 70.83 29.7 C 71.36 29.81 72.4 30.03 72.93 30.14 C 73.47 32.35 75.51 32.49 77.08 31.16 L 76.99 32.15 C 76.13 34.23 78.08 34.22 79.55 34.5 C 79.61 36.49 81.42 38.13 82.91 36.09 C 83.69 37.16 84.69 37.98 86.03 38.2 C 80.84 41.15 86.45 40.06 88.78 42.01 C 88.32 39.04 90.44 40.94 92 41.36 L 92.41 42.03 C 90.82 43.19 83.65 43.61 87.68 46.01 L 87.8 46.73 C 86.9 49.42 88.83 52.48 91.82 51.12 L 91.93 51.72 C 88.38 51.77 86.96 57.51 91.18 57.62 C 91.39 57.94 91.79 58.57 91.99 58.89 C 91.01 58.87 88.08 56.53 88.72 58.91 C 89.71 62.66 84.97 65.23 85.76 69.02 C 82.49 70.2 80.19 72.75 78.33 75.59 C 79.53 76.35 81.67 76.4 81.85 78.15 C 81.18 78.13 79.84 78.1 79.17 78.08 C 78.58 77.86 77.38 77.43 76.78 77.21 C 76.81 74.41 78.49 72.25 80.36 70.36 C 86.77 63.25 88.1 52.21 82.96 44.01 C 74.29 28.6 53.49 26.06 38.46 32.82 C 37.39 31.11 35.73 32.19 34.42 32.87 C 35.43 30.1 28.34 33.68 33.19 30.68 C 33.67 30.8 34.62 31.04 35.1 31.16 C 37.97 31.99 41.55 28.91 39.4 26.03 C 39.58 25.74 39.96 25.16 40.15 24.87 C 40.46 28.95 47.32 29.7 47.26 25.23 Z" stroke-linecap="round" />
</g>
		<g transform="matrix(1.33 0 0 1.33 -30.54 -45.84)" id="gDQLYinqo_r8NgVftrIm6"  >
<path style="stroke: none; stroke-width: 1; stroke-dasharray: none; stroke-linecap: butt; stroke-dashoffset: 0; stroke-linejoin: miter; stroke-miterlimit: 4; fill: rgb(38,38,40); fill-rule: nonzero; opacity: 1;" vector-effect="non-scaling-stroke"  transform=" translate(-36.59, -28.12)" d="M 35.1 31.16 C 30.36 27.65 35.13 22.74 39.4 26.03 C 41.55 28.91 37.97 31.99 35.1 31.16 M 35.43 27.15 C 36.41 32.25 40.04 25.52 35.43 27.15 Z" stroke-linecap="round" />
</g>
		<g transform="matrix(1.33 0 0 1.33 -38.66 -40.99)" id="GsvRG6KLc4tH_EBwqcGhJ"  >
<path style="stroke: none; stroke-width: 1; stroke-dasharray: none; stroke-linecap: butt; stroke-dashoffset: 0; stroke-linejoin: miter; stroke-miterlimit: 4; fill: rgb(50,48,53); fill-rule: nonzero; opacity: 1;" vector-effect="non-scaling-stroke"  transform=" translate(-30.5, -31.76)" d="M 26.49 30.95 C 28.89 27.7 30.63 28.35 33.19 30.68 C 28.34 33.68 35.43 30.1 34.42 32.87 C 31.62 36.72 28.39 34.14 26.49 30.95 Z" stroke-linecap="round" />
</g>
		<g transform="matrix(1.33 0 0 1.33 -5.74 -11.85)" id="7czJhDWDHpFgbvsi2A5Sj"  >
<path style="stroke: none; stroke-width: 1; stroke-dasharray: none; stroke-linecap: butt; stroke-dashoffset: 0; stroke-linejoin: miter; stroke-miterlimit: 4; fill: rgb(149,141,77); fill-rule: nonzero; opacity: 1;" vector-effect="non-scaling-stroke"  transform=" translate(-55.2, -53.61)" d="M 38.46 32.82 C 53.49 26.06 74.29 28.6 82.96 44.01 C 88.1 52.21 86.77 63.25 80.36 70.36 C 78.49 72.25 76.81 74.41 76.78 77.21 C 74.75 75.47 75.89 72.25 74.27 70.11 C 77.96 72.32 80.33 67.26 81.73 64.63 C 87.8 52.83 80.14 37.82 68.04 33.77 C 65.16 31.31 60.77 31.66 57.19 30.9 C 52.3 30.31 47.15 31.21 42.72 33.38 C 29.47 37.59 21.73 54.36 29.47 66.56 C 31.24 68.15 32.18 72.14 35.08 71.42 C 34.32 73.55 34.13 75.84 33.25 77.93 C 34.31 73.16 29.55 71.02 27.72 67.37 C 19.72 55.35 26.65 39.3 38.46 32.82 Z" stroke-linecap="round" />
</g>
		<g transform="matrix(1.33 0 0 1.33 -12.72 -39.52)" id="cKOU2pMBJoYElNLjkhHwu"  >
<path style="stroke: none; stroke-width: 1; stroke-dasharray: none; stroke-linecap: butt; stroke-dashoffset: 0; stroke-linejoin: miter; stroke-miterlimit: 4; fill: rgb(246,236,189); fill-rule: nonzero; opacity: 1;" vector-effect="non-scaling-stroke"  transform=" translate(-49.96, -32.86)" d="M 42.72 33.38 C 47.15 31.21 52.3 30.31 57.19 30.9 C 57.38 33.45 54.58 33.04 52.85 33.38 C 49.91 33.37 47.12 34.44 44.26 34.99 C 43.88 34.59 43.11 33.78 42.72 33.38 Z" stroke-linecap="round" />
</g>
		<g transform="matrix(1.33 0 0 1.33 1.26 -37.35)" id="s73s7krKX7moucevIGcqq"  >
<path style="stroke: none; stroke-width: 1; stroke-dasharray: none; stroke-linecap: butt; stroke-dashoffset: 0; stroke-linejoin: miter; stroke-miterlimit: 4; fill: rgb(224,222,195); fill-rule: nonzero; opacity: 1;" vector-effect="non-scaling-stroke"  transform=" translate(-60.45, -34.49)" d="M 57.19 30.9 C 60.77 31.66 65.16 31.31 68.04 33.77 C 67.3 35.09 67.11 36.6 66.98 38.08 C 64.85 32.09 57.7 34.12 52.85 33.38 C 54.58 33.04 57.38 33.45 57.19 30.9 Z" stroke-linecap="round" />
</g>
		<g transform="matrix(1.33 0 0 1.33 28.04 -38.11)" id="AFM4AHueHWVzQWOjdblLP"  >
<path style="stroke: none; stroke-width: 1; stroke-dasharray: none; stroke-linecap: butt; stroke-dashoffset: 0; stroke-linejoin: miter; stroke-miterlimit: 4; fill: rgb(81,99,95); fill-rule: nonzero; opacity: 1;" vector-effect="non-scaling-stroke"  transform=" translate(-80.53, -33.92)" d="M 76.99 32.15 C 81.29 29.73 86.9 30.35 82.91 36.09 C 81.42 38.13 79.61 36.49 79.55 34.5 C 78.08 34.22 76.13 34.23 76.99 32.15 Z" stroke-linecap="round" />
</g>
		<g transform="matrix(1.33 0 0 1.33 -6.2 -29.54)" id="SX9T7nl4lSYCd9mZTvhzR"  >
<path style="stroke: none; stroke-width: 1; stroke-dasharray: none; stroke-linecap: butt; stroke-dashoffset: 0; stroke-linejoin: miter; stroke-miterlimit: 4; fill: rgb(184,163,111); fill-rule: nonzero; opacity: 1;" vector-effect="non-scaling-stroke"  transform=" translate(-54.85, -40.34)" d="M 44.26 34.99 C 47.12 34.44 49.91 33.37 52.85 33.38 C 57.7 34.12 64.85 32.09 66.98 38.08 C 68.27 41.05 70.34 43.75 70.83 47.02 C 68.87 47.65 66.76 47.05 64.76 47.02 L 64.14 46.77 C 62.76 45.39 60.7 45.82 58.93 45.71 C 60.51 45.03 63.67 46.11 64.05 44.19 C 61.51 44.36 56.36 42.5 55.78 45.88 C 55.24 45.26 54.92 43.58 54 44.76 C 52.4 43.66 45.07 43.12 48.02 46.05 C 47.69 46.24 47.04 46.63 46.71 46.82 C 44.11 47.15 41.48 47.41 38.87 47.07 C 39.21 42.73 42.4 38.93 44.26 34.99 M 49.17 36.33 C 46.49 37 45.42 40.28 45.12 42.75 C 48.03 42.61 50.94 42.54 53.84 42.86 C 54.19 39.24 54.48 33.51 49.17 36.33 M 56 36.01 C 52.96 43.19 59.68 43.18 64.86 42.7 C 64.12 38.57 60.39 34.85 56 36.01 Z" stroke-linecap="round" />
</g>
		<g transform="matrix(1.33 0 0 1.33 -30.17 -13.41)" id="YUTCPzf98sUzvzMx6-Rbe"  >
<path style="stroke: none; stroke-width: 1; stroke-dasharray: none; stroke-linecap: butt; stroke-dashoffset: 0; stroke-linejoin: miter; stroke-miterlimit: 4; fill: rgb(253,250,244); fill-rule: nonzero; opacity: 1;" vector-effect="non-scaling-stroke"  transform=" translate(-36.87, -52.44)" d="M 29.47 66.56 C 21.73 54.36 29.47 37.59 42.72 33.38 C 43.11 33.78 43.88 34.59 44.26 34.99 C 42.4 38.93 39.21 42.73 38.87 47.07 C 41.48 47.41 44.11 47.15 46.71 46.82 C 50.43 55.9 36.64 47.71 37.99 55.15 C 37.53 55.3 36.6 55.61 36.14 55.76 C 32.38 56.34 32.7 65.9 35.87 68.06 C 35.79 69.23 35.53 70.35 35.08 71.42 C 32.18 72.14 31.24 68.15 29.47 66.56 Z" stroke-linecap="round" />
</g>
		<g transform="matrix(1.33 0 0 1.33 -54.58 -16.44)" id="rzEZjQJ2O5S5iIlKGia_Q"  >
<path style="stroke: none; stroke-width: 1; stroke-dasharray: none; stroke-linecap: butt; stroke-dashoffset: 0; stroke-linejoin: miter; stroke-miterlimit: 4; fill: rgb(253,250,244); fill-rule: nonzero; opacity: 1;" vector-effect="non-scaling-stroke"  transform=" translate(-18.57, -50.17)" d="M 17.22 49.35 C 23.45 48.09 16.91 54.02 17.22 49.35 Z" stroke-linecap="round" />
</g>
		<g transform="matrix(1.33 0 0 1.33 19.43 -13.72)" id="iPeNNOnONh4oqfhYj7Lws"  >
<path style="stroke: none; stroke-width: 1; stroke-dasharray: none; stroke-linecap: butt; stroke-dashoffset: 0; stroke-linejoin: miter; stroke-miterlimit: 4; fill: rgb(200,220,225); fill-rule: nonzero; opacity: 1;" vector-effect="non-scaling-stroke"  transform=" translate(-74.07, -52.21)" d="M 66.98 38.08 C 67.11 36.6 67.3 35.09 68.04 33.77 C 80.14 37.82 87.8 52.83 81.73 64.63 C 80.33 67.26 77.96 72.32 74.27 70.11 L 73.87 69.19 C 77.56 65.83 76.41 60.44 75.99 56.02 C 73.06 56.36 72.92 53.73 72.11 51.65 C 68.7 51.65 62.55 52.42 64.76 47.02 C 66.76 47.05 68.87 47.65 70.83 47.02 C 70.34 43.75 68.27 41.05 66.98 38.08 Z" stroke-linecap="round" />
</g>
		<g transform="matrix(1.33 0 0 1.33 -13.25 -31.04)" id="NF5u6qC4sF8Y1pZXO2U_F"  >
<path style="stroke: none; stroke-width: 1; stroke-dasharray: none; stroke-linecap: butt; stroke-dashoffset: 0; stroke-linejoin: miter; stroke-miterlimit: 4; fill: rgb(248,241,215); fill-rule: nonzero; opacity: 1;" vector-effect="non-scaling-stroke"  transform=" translate(-49.56, -39.22)" d="M 49.17 36.33 C 54.48 33.51 54.19 39.24 53.84 42.86 C 50.94 42.54 48.03 42.61 45.12 42.75 C 45.42 40.28 46.49 37 49.17 36.33 Z" stroke-linecap="round" />
</g>
		<g transform="matrix(1.33 0 0 1.33 0.73 -30.88)" id="UvF7Ht7APAWieRyd1pe7K"  >
<path style="stroke: none; stroke-width: 1; stroke-dasharray: none; stroke-linecap: butt; stroke-dashoffset: 0; stroke-linejoin: miter; stroke-miterlimit: 4; fill: rgb(246,243,212); fill-rule: nonzero; opacity: 1;" vector-effect="non-scaling-stroke"  transform=" translate(-60.05, -39.34)" d="M 56 36.01 C 60.39 34.85 64.12 38.57 64.86 42.7 C 59.68 43.18 52.96 43.19 56 36.01 Z" stroke-linecap="round" />
</g>
		<g transform="matrix(1.33 0 0 1.33 -11.78 -23.34)" id="kqKGgDEHXrAEHQOJ5FO1k"  >
<path style="stroke: none; stroke-width: 1; stroke-dasharray: none; stroke-linecap: butt; stroke-dashoffset: 0; stroke-linejoin: miter; stroke-miterlimit: 4; fill: rgb(235,203,134); fill-rule: nonzero; opacity: 1;" vector-effect="non-scaling-stroke"  transform=" translate(-50.66, -45)" d="M 48.02 46.05 C 45.07 43.12 52.4 43.66 54 44.76 C 53.44 47.11 49.85 45.59 48.02 46.05 Z" stroke-linecap="round" />
</g>
		<g transform="matrix(1.33 0 0 1.33 -11.31 -16.93)" id="uUrW3F9k6heCXAHbOh6j-"  >
<path style="stroke: none; stroke-width: 1; stroke-dasharray: none; stroke-linecap: butt; stroke-dashoffset: 0; stroke-linejoin: miter; stroke-miterlimit: 4; fill: rgb(164,108,22); fill-rule: nonzero; opacity: 1;" vector-effect="non-scaling-stroke"  transform=" translate(-51.02, -49.8)" d="M 54 44.76 C 54.92 43.58 55.24 45.26 55.78 45.88 C 56.56 45.84 58.14 45.75 58.93 45.71 C 60.7 45.82 62.76 45.39 64.14 46.77 C 63.94 48.29 64.07 49.93 63.33 51.33 C 60.95 49.79 62.61 45.73 59.13 47.59 C 57.19 46.93 55.18 46.41 53.18 47.17 C 49.76 45.95 47.97 47.91 48.16 51.27 C 48.15 51.63 48.12 52.36 48.11 52.73 C 47.5 52.83 46.29 53.02 45.69 53.12 C 45.29 53.14 44.5 53.18 44.11 53.19 C 41.98 52.47 39.23 52.58 38.69 55.25 L 37.99 55.15 C 36.64 47.71 50.43 55.9 46.71 46.82 C 47.04 46.63 47.69 46.24 48.02 46.05 C 49.85 45.59 53.44 47.11 54 44.76 Z" stroke-linecap="round" />
</g>
		<g transform="matrix(1.33 0 0 1.33 6.68 19.97)" id="REBYinYmrScwDRFn6-MHB"  >
<path style="stroke: none; stroke-width: 1; stroke-dasharray: none; stroke-linecap: butt; stroke-dashoffset: 0; stroke-linejoin: miter; stroke-miterlimit: 4; fill: rgb(164,108,22); fill-rule: nonzero; opacity: 1;" vector-effect="non-scaling-stroke"  transform=" translate(-64.51, -77.48)" d="M 66.94 80.01 C 62.05 85.55 59.79 72.43 65.25 73.65 C 66.54 75.53 66.2 77.92 66.94 80.01 Z" stroke-linecap="round" />
</g>
		<g transform="matrix(1.33 0 0 1.33 18.15 18.71)" id="7taKnpaxH9nAXqnqHgt4R"  >
<path style="stroke: none; stroke-width: 1; stroke-dasharray: none; stroke-linecap: butt; stroke-dashoffset: 0; stroke-linejoin: miter; stroke-miterlimit: 4; fill: rgb(164,108,22); fill-rule: nonzero; opacity: 1;" vector-effect="non-scaling-stroke"  transform=" translate(-73.12, -76.53)" d="M 74.3 75.58 C 76.59 78.98 67.13 77.1 74.3 75.58 Z" stroke-linecap="round" />
</g>
		<g transform="matrix(1.33 0 0 1.33 20.67 28.74)" id="ylDKe5AogrmcqiPlRKzFq"  >
<path style="stroke: none; stroke-width: 1; stroke-dasharray: none; stroke-linecap: butt; stroke-dashoffset: 0; stroke-linejoin: miter; stroke-miterlimit: 4; fill: rgb(164,108,22); fill-rule: nonzero; opacity: 1;" vector-effect="non-scaling-stroke"  transform=" translate(-75, -84.05)" d="M 72.32 83.43 C 73.94 84.02 78.05 82.12 77.7 84.65 C 76.15 84.24 71.86 85.89 72.32 83.43 Z" stroke-linecap="round" />
</g>
		<g transform="matrix(1.33 0 0 1.33 28.45 28.72)" id="OdOxL0MphYbuJEwBBVbq9"  >
<path style="stroke: none; stroke-width: 1; stroke-dasharray: none; stroke-linecap: butt; stroke-dashoffset: 0; stroke-linejoin: miter; stroke-miterlimit: 4; fill: rgb(164,108,22); fill-rule: nonzero; opacity: 1;" vector-effect="non-scaling-stroke"  transform=" translate(-80.84, -84.04)" d="M 79.34 83.43 C 85.54 82.05 80.34 87.31 79.34 83.43 Z" stroke-linecap="round" />
</g>
		<g transform="matrix(1.33 0 0 1.33 0.55 -23.53)" id="T_d0cR4ILuV9ChNeM4BT3"  >
<path style="stroke: none; stroke-width: 1; stroke-dasharray: none; stroke-linecap: butt; stroke-dashoffset: 0; stroke-linejoin: miter; stroke-miterlimit: 4; fill: rgb(245,219,153); fill-rule: nonzero; opacity: 1;" vector-effect="non-scaling-stroke"  transform=" translate(-59.91, -44.86)" d="M 55.78 45.88 C 56.36 42.5 61.51 44.36 64.05 44.19 C 63.67 46.11 60.51 45.03 58.93 45.71 C 58.14 45.75 56.56 45.84 55.78 45.88 Z" stroke-linecap="round" />
</g>
		<g transform="matrix(1.33 0 0 1.33 42.4 -18.54)" id="khC7kD8vjzJEleSgT5k3K"  >
<path style="stroke: none; stroke-width: 1; stroke-dasharray: none; stroke-linecap: butt; stroke-dashoffset: 0; stroke-linejoin: miter; stroke-miterlimit: 4; fill: rgb(43,51,58); fill-rule: nonzero; opacity: 1;" vector-effect="non-scaling-stroke"  transform=" translate(-91.3, -48.59)" d="M 89.32 49.07 C 91.54 48.85 90.59 44.41 93.86 46.12 C 96.42 48.76 94.31 50.51 91.82 51.12 C 88.83 52.48 86.9 49.42 87.8 46.73 C 90.32 45.9 90.46 47.32 89.32 49.07 Z" stroke-linecap="round" />
</g>
		<g transform="matrix(1.33 0 0 1.33 -11.78 -17.64)" id="4JwKB4KL_14avaUASwqJq"  >
<path style="stroke: none; stroke-width: 1; stroke-dasharray: none; stroke-linecap: butt; stroke-dashoffset: 0; stroke-linejoin: miter; stroke-miterlimit: 4; fill: rgb(234,165,47); fill-rule: nonzero; opacity: 1;" vector-effect="non-scaling-stroke"  transform=" translate(-50.66, -49.27)" d="M 48.16 51.27 C 47.97 47.91 49.76 45.95 53.18 47.17 C 52 47.73 47.68 49.12 50.99 49.81 C 55.53 50.39 50.06 52.71 48.16 51.27 Z" stroke-linecap="round" />
</g>
		<g transform="matrix(1.33 0 0 1.33 -10.86 7.75)" id="JYANZ4opXr47R1nzyUNHx"  >
<path style="stroke: none; stroke-width: 1; stroke-dasharray: none; stroke-linecap: butt; stroke-dashoffset: 0; stroke-linejoin: miter; stroke-miterlimit: 4; fill: rgb(224,147,20); fill-rule: nonzero; opacity: 1;" vector-effect="non-scaling-stroke"  transform=" translate(-51.35, -68.31)" d="M 53.18 47.17 C 55.18 46.41 57.19 46.93 59.13 47.59 C 60.12 49.68 59.3 53.07 63.33 51.33 C 64.07 49.93 63.94 48.29 64.14 46.77 L 64.76 47.02 C 62.55 52.42 68.7 51.65 72.11 51.65 C 70.64 52.29 67.34 51.32 67.07 53.16 C 66.23 56.01 69.75 56.7 71.37 54.96 C 73.92 57.08 75.76 59.17 74.8 63.08 C 71.77 61.93 69.26 65.67 73.16 66.27 C 73.08 66.74 72.93 67.7 72.86 68.17 C 68.97 69.98 65.65 67.72 68.7 64.16 C 67.34 63.76 58.67 60.52 63.57 58.38 C 64.22 56.29 60.32 57.26 61.08 59.22 C 57.07 58.49 52.8 56.66 49.12 58.96 C 49.38 55.56 41.33 58.95 46.23 58.94 C 46.3 64.42 35.49 66.71 39.95 71.98 C 38.87 72.6 35.97 71.58 36.28 73.46 C 40.56 72.49 40.73 80.5 36.44 79.69 C 33.73 80.94 38.1 81.86 39.22 81.9 C 40.52 84.97 34.52 81.78 35.31 84.55 C 37.57 84.63 39.85 84.57 42.1 84.93 C 42.23 86.36 42.25 87.81 42.17 89.25 L 41.02 89.23 C 41.57 85.13 33.55 84.8 35.03 89.29 C 34.59 89.3 33.69 89.32 33.25 89.32 C 34.7 85.01 27.45 85.02 29.37 89.31 C 29 89.44 28.26 89.72 27.89 89.86 L 27.72 89.12 C 27.7 88.32 27.66 86.72 27.65 85.93 C 27.97 85.65 28.61 85.09 28.94 84.81 C 32.61 85.81 34.64 82.65 29.83 82.92 C 29.7 82.44 29.44 81.48 29.31 80.99 C 31.06 82.2 35.18 81.42 33.01 78.78 L 33.25 77.93 C 34.13 75.84 34.32 73.55 35.08 71.42 C 35.53 70.35 35.79 69.23 35.87 68.06 C 35.89 67.6 35.94 66.66 35.96 66.19 C 41.8 66.85 36.56 59.67 35.69 65.18 C 35.12 62.77 35.03 60.18 35.67 57.78 C 37.87 61.92 40.93 55.49 35.95 56.9 L 36.14 55.76 C 36.6 55.61 37.53 55.3 37.99 55.15 L 38.69 55.25 C 40.91 55.8 44.49 56.7 44.11 53.19 C 44.5 53.18 45.29 53.14 45.69 53.12 C 45.21 57.06 50.65 56.17 48.11 52.73 C 48.12 52.36 48.15 51.63 48.16 51.27 C 50.06 52.71 55.53 50.39 50.99 49.81 C 47.68 49.12 52 47.73 53.18 47.17 M 54.22 50.23 C 56.43 54.45 59.69 47.82 54.22 50.23 M 50.3 53.41 C 48.66 56.3 54.51 56.94 53.93 54.14 C 54.75 51.89 51.39 53.58 50.3 53.41 M 56.29 53.32 C 54.7 56.89 61.28 56.57 60.81 53.37 C 59.31 53.21 57.79 53.18 56.29 53.32 M 62.17 53.37 C 63.67 59.5 69.01 51.24 62.17 53.37 M 66.28 57.3 C 65.68 62.55 72.19 55.54 66.28 57.3 M 35.16 76.12 C 35.22 81.46 40.85 73.99 35.16 76.12 Z" stroke-linecap="round" />
</g>
		<g transform="matrix(1.33 0 0 1.33 2.31 -17.39)" id="bOsRsf9GLDoyf7DSfIgmh"  >
<path style="stroke: none; stroke-width: 1; stroke-dasharray: none; stroke-linecap: butt; stroke-dashoffset: 0; stroke-linejoin: miter; stroke-miterlimit: 4; fill: rgb(244,192,65); fill-rule: nonzero; opacity: 1;" vector-effect="non-scaling-stroke"  transform=" translate(-61.23, -49.46)" d="M 59.13 47.59 C 62.61 45.73 60.95 49.79 63.33 51.33 C 59.3 53.07 60.12 49.68 59.13 47.59 Z" stroke-linecap="round" />
</g>
		<g transform="matrix(1.33 0 0 1.33 -4.47 24.59)" id="xYtOxhdPppCXX_5-cdACH"  >
<path style="stroke: none; stroke-width: 1; stroke-dasharray: none; stroke-linecap: butt; stroke-dashoffset: 0; stroke-linejoin: miter; stroke-miterlimit: 4; fill: rgb(244,192,65); fill-rule: nonzero; opacity: 1;" vector-effect="non-scaling-stroke"  transform=" translate(-56.14, -80.94)" d="M 55.23 77.23 C 58.87 76.83 57.81 81.75 59.96 83.38 C 59.98 83.7 60.04 84.36 60.06 84.68 C 57.25 83.78 54.06 85.29 52.23 82.17 C 53.16 80.48 54.14 78.82 55.23 77.23 Z" stroke-linecap="round" />
</g>
		<g transform="matrix(1.33 0 0 1.33 -54.77 -16.38)" id="nAO3lr29KHzO8GoUy_eNq"  >
<path style="stroke: none; stroke-width: 1; stroke-dasharray: none; stroke-linecap: butt; stroke-dashoffset: 0; stroke-linejoin: miter; stroke-miterlimit: 4; fill: rgb(35,35,35); fill-rule: nonzero; opacity: 1;" vector-effect="non-scaling-stroke"  transform=" translate(-18.42, -50.21)" d="M 16.19 47.89 C 19.11 45.85 23.94 48.89 21.48 52.42 C 18.81 54.62 11.57 51.8 16.19 47.89 M 17.22 49.35 C 16.91 54.02 23.45 48.09 17.22 49.35 Z" stroke-linecap="round" />
</g>
		<g transform="matrix(1.33 0 0 1.33 -5.04 -15.76)" id="txBNjWzqTI0CNgiarGuIQ"  >
<path style="stroke: none; stroke-width: 1; stroke-dasharray: none; stroke-linecap: butt; stroke-dashoffset: 0; stroke-linejoin: miter; stroke-miterlimit: 4; fill: rgb(239,179,40); fill-rule: nonzero; opacity: 1;" vector-effect="non-scaling-stroke"  transform=" translate(-55.72, -50.68)" d="M 54.22 50.23 C 59.69 47.82 56.43 54.45 54.22 50.23 Z" stroke-linecap="round" />
</g>
		<g transform="matrix(1.33 0 0 1.33 16.38 -2.77)" id="mAThVtRZnbNqSLg6IPrBr"  >
<path style="stroke: none; stroke-width: 1; stroke-dasharray: none; stroke-linecap: butt; stroke-dashoffset: 0; stroke-linejoin: miter; stroke-miterlimit: 4; fill: rgb(168,131,58); fill-rule: nonzero; opacity: 1;" vector-effect="non-scaling-stroke"  transform=" translate(-71.78, -60.42)" d="M 67.07 53.16 C 67.34 51.32 70.64 52.29 72.11 51.65 C 72.92 53.73 73.06 56.36 75.99 56.02 C 76.41 60.44 77.56 65.83 73.87 69.19 L 72.99 69.19 L 72.86 68.17 C 72.93 67.7 73.08 66.74 73.16 66.27 C 74.92 66.06 74.88 64.48 74.8 63.08 C 75.76 59.17 73.92 57.08 71.37 54.96 C 71.56 52.24 68.81 53.12 67.07 53.16 Z" stroke-linecap="round" />
</g>
		<g transform="matrix(1.33 0 0 1.33 -24.11 -10.94)" id="IWtQWzF7s5VMOQYrHfCj1"  >
<path style="stroke: none; stroke-width: 1; stroke-dasharray: none; stroke-linecap: butt; stroke-dashoffset: 0; stroke-linejoin: miter; stroke-miterlimit: 4; fill: rgb(232,177,41); fill-rule: nonzero; opacity: 1;" vector-effect="non-scaling-stroke"  transform=" translate(-41.41, -54.29)" d="M 38.69 55.25 C 39.23 52.58 41.98 52.47 44.11 53.19 C 44.49 56.7 40.91 55.8 38.69 55.25 Z" stroke-linecap="round" />
</g>
		<g transform="matrix(1.33 0 0 1.33 -16.37 -11.04)" id="qIPmJ6g37RyjEl16iLl_l"  >
<path style="stroke: none; stroke-width: 1; stroke-dasharray: none; stroke-linecap: butt; stroke-dashoffset: 0; stroke-linejoin: miter; stroke-miterlimit: 4; fill: rgb(246,174,34); fill-rule: nonzero; opacity: 1;" vector-effect="non-scaling-stroke"  transform=" translate(-47.22, -54.22)" d="M 45.69 53.12 C 46.29 53.02 47.5 52.83 48.11 52.73 C 50.65 56.17 45.21 57.06 45.69 53.12 Z" stroke-linecap="round" />
</g>
		<g transform="matrix(1.33 0 0 1.33 -9.96 -10.73)" id="yTiA8fBJVrLVvnRi-aB6f"  >
<path style="stroke: none; stroke-width: 1; stroke-dasharray: none; stroke-linecap: butt; stroke-dashoffset: 0; stroke-linejoin: miter; stroke-miterlimit: 4; fill: rgb(239,174,35); fill-rule: nonzero; opacity: 1;" vector-effect="non-scaling-stroke"  transform=" translate(-52.03, -54.45)" d="M 50.3 53.41 C 51.39 53.58 54.75 51.89 53.93 54.14 C 54.51 56.94 48.66 56.3 50.3 53.41 Z" stroke-linecap="round" />
</g>
		<g transform="matrix(1.33 0 0 1.33 -1.42 -10.59)" id="va_x-g6QnmRZLpffkebnr"  >
<path style="stroke: none; stroke-width: 1; stroke-dasharray: none; stroke-linecap: butt; stroke-dashoffset: 0; stroke-linejoin: miter; stroke-miterlimit: 4; fill: rgb(243,174,30); fill-rule: nonzero; opacity: 1;" vector-effect="non-scaling-stroke"  transform=" translate(-58.44, -54.56)" d="M 56.29 53.32 C 57.79 53.18 59.31 53.21 60.81 53.37 C 61.28 56.57 54.7 56.89 56.29 53.32 Z" stroke-linecap="round" />
</g>
		<g transform="matrix(1.33 0 0 1.33 5.83 -10.87)" id="KkLXPU_aGkDvf0bCctPoa"  >
<path style="stroke: none; stroke-width: 1; stroke-dasharray: none; stroke-linecap: butt; stroke-dashoffset: 0; stroke-linejoin: miter; stroke-miterlimit: 4; fill: rgb(243,171,36); fill-rule: nonzero; opacity: 1;" vector-effect="non-scaling-stroke"  transform=" translate(-63.87, -54.34)" d="M 62.17 53.37 C 69.01 51.24 63.67 59.5 62.17 53.37 Z" stroke-linecap="round" />
</g>
		<g transform="matrix(1.33 0 0 1.33 12.88 -10.73)" id="HvDkWeYSf0K8tC5_0664x"  >
<path style="stroke: none; stroke-width: 1; stroke-dasharray: none; stroke-linecap: butt; stroke-dashoffset: 0; stroke-linejoin: miter; stroke-miterlimit: 4; fill: rgb(232,175,58); fill-rule: nonzero; opacity: 1;" vector-effect="non-scaling-stroke"  transform=" translate(-69.16, -54.45)" d="M 67.07 53.16 C 68.81 53.12 71.56 52.24 71.37 54.96 C 69.75 56.7 66.23 56.01 67.07 53.16 Z" stroke-linecap="round" />
</g>
		<g transform="matrix(1.33 0 0 1.33 -55.34 -9.89)" id="gbQ3hwRs_VKQhPTSGvoOz"  >
<path style="stroke: none; stroke-width: 1; stroke-dasharray: none; stroke-linecap: butt; stroke-dashoffset: 0; stroke-linejoin: miter; stroke-miterlimit: 4; fill: rgb(39,39,41); fill-rule: nonzero; opacity: 1;" vector-effect="non-scaling-stroke"  transform=" translate(-17.99, -55.08)" d="M 14.87 54.12 C 16.76 54.41 22.4 52.76 21.23 56.07 C 19.34 55.65 13.26 57.48 14.87 54.12 Z" stroke-linecap="round" />
</g>
		<g transform="matrix(1.33 0 0 1.33 -62.85 20.65)" id="D0VQYZvGQNYV-qeC-W0Dt"  >
<path style="stroke: none; stroke-width: 1; stroke-dasharray: none; stroke-linecap: butt; stroke-dashoffset: 0; stroke-linejoin: miter; stroke-miterlimit: 4; fill: rgb(240,240,237); fill-rule: nonzero; opacity: 1;" vector-effect="non-scaling-stroke"  transform=" translate(-12.37, -77.99)" d="M 4.38 63.1 C 4.91 60.14 6.54 57.47 7.8 54.76 C 8.33 55.1 9.39 55.77 9.92 56.11 C 5.51 66.66 2.73 79.56 9.43 89.65 C 13.6 90.33 17.86 90.16 22.06 89.97 L 22.12 90.86 C 17.8 90.82 13.42 90.46 9.13 90.94 C 10.95 95.96 16.69 97.52 19.98 101.22 C 11.77 98.07 4.59 90.13 3.27 81.08 C 1.92 75.06 2.82 68.95 4.38 63.1 Z" stroke-linecap="round" />
</g>
		<g transform="matrix(1.33 0 0 1.33 -32.97 -0.79)" id="XdGgcIW0rRVTPN88skiO3"  >
<path style="stroke: none; stroke-width: 1; stroke-dasharray: none; stroke-linecap: butt; stroke-dashoffset: 0; stroke-linejoin: miter; stroke-miterlimit: 4; fill: rgb(187,140,65); fill-rule: nonzero; opacity: 1;" vector-effect="non-scaling-stroke"  transform=" translate(-34.77, -61.91)" d="M 35.87 68.06 C 32.7 65.9 32.38 56.34 36.14 55.76 L 35.95 56.9 L 35.67 57.78 C 35.03 60.18 35.12 62.77 35.69 65.18 L 35.96 66.19 C 35.94 66.66 35.89 67.6 35.87 68.06 Z" stroke-linecap="round" />
</g>
		<g transform="matrix(1.33 0 0 1.33 -54.94 -3.05)" id="TNd-O_x4KazthM-Ty_HHn"  >
<path style="stroke: none; stroke-width: 1; stroke-dasharray: none; stroke-linecap: butt; stroke-dashoffset: 0; stroke-linejoin: miter; stroke-miterlimit: 4; fill: rgb(37,37,37); fill-rule: nonzero; opacity: 1;" vector-effect="non-scaling-stroke"  transform=" translate(-18.29, -60.21)" d="M 19.14 57.26 C 22.92 56.11 21.13 59.64 19.51 60.9 C 25.38 60.66 19.67 64.15 16.84 63.24 C 11.63 63.41 21.04 58.01 15.96 59.56 C 12 58.55 17.3 56.97 19.14 57.26 Z" stroke-linecap="round" />
</g>
		<g transform="matrix(1.33 0 0 1.33 -29.8 -6.08)" id="Xf9Kf2iTdvY41HNJS2APE"  >
<path style="stroke: none; stroke-width: 1; stroke-dasharray: none; stroke-linecap: butt; stroke-dashoffset: 0; stroke-linejoin: miter; stroke-miterlimit: 4; fill: rgb(246,175,43); fill-rule: nonzero; opacity: 1;" vector-effect="non-scaling-stroke"  transform=" translate(-37.15, -57.94)" d="M 35.95 56.9 C 40.93 55.49 37.87 61.92 35.67 57.78 L 35.95 56.9 Z" stroke-linecap="round" />
</g>
		<g transform="matrix(1.33 0 0 1.33 -7.18 11.59)" id="ZqX34HVXXJXU-haKDdZXB"  >
<path style="stroke: none; stroke-width: 1; stroke-dasharray: none; stroke-linecap: butt; stroke-dashoffset: 0; stroke-linejoin: miter; stroke-miterlimit: 4; fill: rgb(243,214,107); fill-rule: nonzero; opacity: 1;" vector-effect="non-scaling-stroke"  transform=" translate(-54.11, -71.19)" d="M 46.23 58.94 C 41.33 58.95 49.38 55.56 49.12 58.96 C 52.8 56.66 57.07 58.49 61.08 59.22 C 60.32 57.26 64.22 56.29 63.57 58.38 C 58.67 60.52 67.34 63.76 68.7 64.16 C 65.65 67.72 68.97 69.98 72.86 68.17 L 72.99 69.19 C 71.75 69.83 70.45 70.73 68.99 70.14 C 69.85 73.82 68.33 79.13 72.87 80.57 C 69.02 79.75 71.11 84.88 68.11 85.18 L 67.24 85.02 C 67.2 84.26 67.13 82.76 67.1 82 C 67.06 81.5 66.98 80.51 66.94 80.01 C 66.2 77.92 66.54 75.53 65.25 73.65 L 65.1 73.01 C 65.72 69.88 61.22 69.6 60.44 72.12 C 60.26 71.66 59.92 70.73 59.74 70.27 C 63.27 72.26 65.25 66.05 61.02 67.02 L 60.05 67.1 C 63.71 62.06 55.87 66.74 57.84 62.97 C 56.57 62.65 55.27 62.52 53.95 62.59 C 53.65 66.86 48.49 61.79 49.83 66.92 C 46.93 66.43 43.94 73.56 47.86 73.47 C 45.93 73.79 43.94 74.33 43.76 76.62 C 42.08 79.1 43.04 82.24 42.88 85.03 L 42.1 84.93 C 39.85 84.57 37.57 84.63 35.31 84.55 C 34.52 81.78 40.52 84.97 39.22 81.9 C 38.1 81.86 33.73 80.94 36.44 79.69 C 40.73 80.5 40.56 72.49 36.28 73.46 C 35.97 71.58 38.87 72.6 39.95 71.98 C 35.49 66.71 46.3 64.42 46.23 58.94 Z" stroke-linecap="round" />
</g>
		<g transform="matrix(1.33 0 0 1.33 10.68 -5.8)" id="lhaywGtpzE9bLLXDDdQpw"  >
<path style="stroke: none; stroke-width: 1; stroke-dasharray: none; stroke-linecap: butt; stroke-dashoffset: 0; stroke-linejoin: miter; stroke-miterlimit: 4; fill: rgb(246,178,34); fill-rule: nonzero; opacity: 1;" vector-effect="non-scaling-stroke"  transform=" translate(-67.51, -58.15)" d="M 66.28 57.3 C 72.19 55.54 65.68 62.55 66.28 57.3 Z" stroke-linecap="round" />
</g>
		<g transform="matrix(1.33 0 0 1.33 40.96 1.24)" id="Wm2iGD0DHCsuBYvsewghy"  >
<path style="stroke: none; stroke-width: 1; stroke-dasharray: none; stroke-linecap: butt; stroke-dashoffset: 0; stroke-linejoin: miter; stroke-miterlimit: 4; fill: rgb(41,56,59); fill-rule: nonzero; opacity: 1;" vector-effect="non-scaling-stroke"  transform=" translate(-90.22, -63.43)" d="M 88.72 58.91 C 88.08 56.53 91.01 58.87 91.99 58.89 C 96.33 59.73 95.3 64.44 90.9 63.42 C 85.44 64.51 95.6 64.98 92.98 67.88 C 90.16 66.7 87.93 66.67 85.76 69.02 C 84.97 65.23 89.71 62.66 88.72 58.91 Z" stroke-linecap="round" />
</g>
		<g transform="matrix(1.33 0 0 1.33 -75.08 12.79)" id="JUUaI8a3CU8Ey4sDb33N4"  >
<path style="stroke: none; stroke-width: 1; stroke-dasharray: none; stroke-linecap: butt; stroke-dashoffset: 0; stroke-linejoin: miter; stroke-miterlimit: 4; fill: rgb(86,86,86); fill-rule: nonzero; opacity: 0.46;" vector-effect="non-scaling-stroke"  transform=" translate(-3.19, -72.09)" d="M 3.27 81.08 C 1.86 76.52 0.92 67.24 4.38 63.1 C 2.82 68.95 1.92 75.06 3.27 81.08 Z" stroke-linecap="round" />
</g>
		<g transform="matrix(1.33 0 0 1.33 -29.75 2.88)" id="O-6cndujqGMKSuw4QMrvE"  >
<path style="stroke: none; stroke-width: 1; stroke-dasharray: none; stroke-linecap: butt; stroke-dashoffset: 0; stroke-linejoin: miter; stroke-miterlimit: 4; fill: rgb(247,170,49); fill-rule: nonzero; opacity: 1;" vector-effect="non-scaling-stroke"  transform=" translate(-37.19, -64.66)" d="M 35.69 65.18 C 36.56 59.67 41.8 66.85 35.96 66.19 L 35.69 65.18 Z" stroke-linecap="round" />
</g>
		<g transform="matrix(1.33 0 0 1.33 -9.47 9.9)" id="Aj6FCzFDTIEN9pGyHZBRF"  >
<path style="stroke: none; stroke-width: 1; stroke-dasharray: none; stroke-linecap: butt; stroke-dashoffset: 0; stroke-linejoin: miter; stroke-miterlimit: 4; fill: rgb(162,109,23); fill-rule: nonzero; opacity: 1;" vector-effect="non-scaling-stroke"  transform=" translate(-52.4, -69.93)" d="M 49.83 66.92 C 48.49 61.79 53.65 66.86 53.95 62.59 C 55.27 62.52 56.57 62.65 57.84 62.97 C 55.87 66.74 63.71 62.06 60.05 67.1 C 57.46 67.12 53.88 63.6 52.19 67.41 C 48.71 70.37 50.34 79.86 43.76 76.62 C 43.94 74.33 45.93 73.79 47.86 73.47 C 43.94 73.56 46.93 66.43 49.83 66.92 Z" stroke-linecap="round" />
</g>
		<g transform="matrix(1.33 0 0 1.33 18 2.75)" id="ykyBfDieMqX_Nbm2N_QjE"  >
<path style="stroke: none; stroke-width: 1; stroke-dasharray: none; stroke-linecap: butt; stroke-dashoffset: 0; stroke-linejoin: miter; stroke-miterlimit: 4; fill: rgb(243,175,43); fill-rule: nonzero; opacity: 1;" vector-effect="non-scaling-stroke"  transform=" translate(-73, -64.57)" d="M 73.16 66.27 C 69.26 65.67 71.77 61.93 74.8 63.08 C 74.88 64.48 74.92 66.06 73.16 66.27 Z" stroke-linecap="round" />
</g>
		<g transform="matrix(1.33 0 0 1.33 -6.1 17.11)" id="xq-miDB9l5gvjp4wm9QjH"  >
<path style="stroke: none; stroke-width: 1; stroke-dasharray: none; stroke-linecap: butt; stroke-dashoffset: 0; stroke-linejoin: miter; stroke-miterlimit: 4; fill: rgb(250,210,118); fill-rule: nonzero; opacity: 1;" vector-effect="non-scaling-stroke"  transform=" translate(-54.92, -75.33)" d="M 52.19 67.41 C 53.88 63.6 57.46 67.12 60.05 67.1 L 61.02 67.02 C 59.75 67.74 59.33 68.82 59.74 70.27 C 59.92 70.73 60.26 71.66 60.44 72.12 C 61.19 74.21 63.55 73.18 65.1 73.01 L 65.25 73.65 C 59.79 72.43 62.05 85.55 66.94 80.01 C 66.98 80.51 67.06 81.5 67.1 82 C 65.35 82.27 62.66 81.53 62.75 84.16 C 61.89 84.58 61 84.76 60.06 84.68 C 60.04 84.36 59.98 83.7 59.96 83.38 C 63.41 78.29 57.84 73.22 55.12 69.92 C 53.81 74.47 47.52 78.16 51.14 83.35 C 52.97 85.93 48.45 84.35 47.05 84.78 C 47.8 81.98 43.12 81.98 44.01 84.84 L 42.88 85.03 C 43.04 82.24 42.08 79.1 43.76 76.62 C 50.34 79.86 48.71 70.37 52.19 67.41 M 44.23 78.27 C 41.98 80.6 48.11 83.18 48.04 80 C 48.98 77.4 45.77 77.39 44.23 78.27 Z" stroke-linecap="round" />
</g>
		<g transform="matrix(1.33 0 0 1.33 2.67 8.39)" id="mw3Jm7ouoml8K-OXa_E3L"  >
<path style="stroke: none; stroke-width: 1; stroke-dasharray: none; stroke-linecap: butt; stroke-dashoffset: 0; stroke-linejoin: miter; stroke-miterlimit: 4; fill: rgb(167,110,25); fill-rule: nonzero; opacity: 1;" vector-effect="non-scaling-stroke"  transform=" translate(-61.5, -68.79)" d="M 61.02 67.02 C 65.25 66.05 63.27 72.26 59.74 70.27 C 59.33 68.82 59.75 67.74 61.02 67.02 Z" stroke-linecap="round" />
</g>
		<g transform="matrix(1.33 0 0 1.33 8.96 22.57)" id="UpT764PVOxqL3s1tHZNjX"  >
<path style="stroke: none; stroke-width: 1; stroke-dasharray: none; stroke-linecap: butt; stroke-dashoffset: 0; stroke-linejoin: miter; stroke-miterlimit: 4; fill: rgb(244,187,9); fill-rule: nonzero; opacity: 1;" vector-effect="non-scaling-stroke"  transform=" translate(-66.22, -79.42)" d="M 72.99 69.19 L 73.87 69.19 L 74.27 70.11 C 75.89 72.25 74.75 75.47 76.78 77.21 C 77.38 77.43 78.58 77.86 79.17 78.08 C 77.9 79.63 75.68 79.24 74.22 80.43 C 77.82 81.85 81.83 80.99 85.32 82.74 C 84.39 85.68 87.52 84.61 89.27 84.71 C 89.55 85.49 89.62 86.29 89.49 87.1 C 87.32 85.46 84.3 85.98 84.95 89.24 C 84.48 89.23 83.53 89.22 83.05 89.22 C 84.43 84.96 77.41 85.18 79.31 89.41 C 77.47 89.62 75.62 89.64 73.77 89.59 C 75.22 88.73 78.09 88.74 77.75 86.41 C 74.85 85.99 71.14 85.54 72.05 89.64 C 63.31 89.51 54.55 89.9 45.83 89.38 C 47.52 86.63 44.52 86.32 42.88 85.03 L 44.01 84.84 C 44.77 84.83 46.29 84.79 47.05 84.78 C 48.45 84.35 52.97 85.93 51.14 83.35 C 51.41 83.06 51.96 82.47 52.23 82.17 C 54.06 85.29 57.25 83.78 60.06 84.68 C 61 84.76 61.89 84.58 62.75 84.16 C 63.02 84.59 63.56 85.45 63.83 85.88 C 58.67 84.7 61.38 91.47 65.17 88.15 L 65.76 88.15 C 69.59 90.49 72.89 87.35 68.11 85.18 C 71.11 84.88 69.02 79.75 72.87 80.57 C 68.33 79.13 69.85 73.82 68.99 70.14 C 70.45 70.73 71.75 69.83 72.99 69.19 M 74.3 75.58 C 67.13 77.1 76.59 78.98 74.3 75.58 M 72.32 83.43 C 71.86 85.89 76.15 84.24 77.7 84.65 C 78.05 82.12 73.94 84.02 72.32 83.43 M 79.34 83.43 C 80.34 87.31 85.54 82.05 79.34 83.43 M 48.3 86.15 C 46.4 88.82 49.92 89.43 51.8 88.69 C 52.62 86.94 49.75 84.43 48.3 86.15 M 54.29 86.32 C 52.99 89.66 56.41 89.2 58.64 88.75 C 59.91 85.39 56.44 86.25 54.29 86.32 Z" stroke-linecap="round" />
</g>
		<g transform="matrix(1.33 0 0 1.33 -5.28 18.87)" id="TqupvCNEZtnluVFqLbGDA"  >
<path style="stroke: none; stroke-width: 1; stroke-dasharray: none; stroke-linecap: butt; stroke-dashoffset: 0; stroke-linejoin: miter; stroke-miterlimit: 4; fill: rgb(187,117,23); fill-rule: nonzero; opacity: 1;" vector-effect="non-scaling-stroke"  transform=" translate(-55.54, -76.65)" d="M 55.12 69.92 C 57.84 73.22 63.41 78.29 59.96 83.38 C 57.81 81.75 58.87 76.83 55.23 77.23 C 54.14 78.82 53.16 80.48 52.23 82.17 C 51.96 82.47 51.41 83.06 51.14 83.35 C 47.52 78.16 53.81 74.47 55.12 69.92 Z" stroke-linecap="round" />
</g>
		<g transform="matrix(1.33 0 0 1.33 4.4 12.56)" id="95jaf0iHSpKnx_aZhpKzm"  >
<path style="stroke: none; stroke-width: 1; stroke-dasharray: none; stroke-linecap: butt; stroke-dashoffset: 0; stroke-linejoin: miter; stroke-miterlimit: 4; fill: rgb(159,111,26); fill-rule: nonzero; opacity: 1;" vector-effect="non-scaling-stroke"  transform=" translate(-62.8, -71.92)" d="M 60.44 72.12 C 61.22 69.6 65.72 69.88 65.1 73.01 C 63.55 73.18 61.19 74.21 60.44 72.12 Z" stroke-linecap="round" />
</g>
		<g transform="matrix(1.33 0 0 1.33 -30.76 19.21)" id="5kyAsvUBJPIkTNWSTCMaL"  >
<path style="stroke: none; stroke-width: 1; stroke-dasharray: none; stroke-linecap: butt; stroke-dashoffset: 0; stroke-linejoin: miter; stroke-miterlimit: 4; fill: rgb(247,174,50); fill-rule: nonzero; opacity: 1;" vector-effect="non-scaling-stroke"  transform=" translate(-36.43, -76.91)" d="M 35.16 76.12 C 40.85 73.99 35.22 81.46 35.16 76.12 Z" stroke-linecap="round" />
</g>
		<g transform="matrix(1.33 0 0 1.33 -42.65 28.33)" id="GfDslL_f-5JI77Gfbt7Pb"  >
<path style="stroke: none; stroke-width: 1; stroke-dasharray: none; stroke-linecap: butt; stroke-dashoffset: 0; stroke-linejoin: miter; stroke-miterlimit: 4; fill: rgb(183,143,66); fill-rule: nonzero; opacity: 1;" vector-effect="non-scaling-stroke"  transform=" translate(-27.51, -83.75)" d="M 27.49 84.5 C 27.23 80.22 27.82 75.86 33.25 77.93 L 33.01 78.78 C 31.79 79.31 29.27 79.1 29.31 80.99 C 29.44 81.48 29.7 82.44 29.83 82.92 C 29.61 83.39 29.16 84.34 28.94 84.81 C 28.61 85.09 27.97 85.65 27.65 85.93 C 22.89 84.86 22.85 91.04 27.72 89.12 L 27.89 89.86 C 25.98 90.29 24 90.03 22.06 89.97 C 20.88 85.7 23.39 83.69 27.49 84.5 Z" stroke-linecap="round" />
</g>
		<g transform="matrix(1.33 0 0 1.33 -18.04 22.82)" id="92CGDGYsnopvqil7DtbMN"  >
<path style="stroke: none; stroke-width: 1; stroke-dasharray: none; stroke-linecap: butt; stroke-dashoffset: 0; stroke-linejoin: miter; stroke-miterlimit: 4; fill: rgb(172,119,29); fill-rule: nonzero; opacity: 1;" vector-effect="non-scaling-stroke"  transform=" translate(-45.97, -79.61)" d="M 44.23 78.27 C 45.77 77.39 48.98 77.4 48.04 80 C 48.11 83.18 41.98 80.6 44.23 78.27 Z" stroke-linecap="round" />
</g>
		<g transform="matrix(1.33 0 0 1.33 -3.95 34.13)" id="JpawAsEVHkg-QYsAW6Hmp"  >
<path style="stroke: none; stroke-width: 1; stroke-dasharray: none; stroke-linecap: butt; stroke-dashoffset: 0; stroke-linejoin: miter; stroke-miterlimit: 4; fill: rgb(141,113,83); fill-rule: nonzero; opacity: 1;" vector-effect="non-scaling-stroke"  transform=" translate(-56.53, -88.1)" d="M 79.17 78.08 C 79.84 78.1 81.18 78.13 81.85 78.15 L 82.14 79.11 C 81.35 82.04 85.23 81.38 86.95 81.21 C 88.3 81.61 90.52 80.75 91.01 82.57 C 90.76 84.73 90.72 86.9 90.65 89.06 C 90.54 89.51 90.33 90.39 90.23 90.83 C 89.91 91.16 89.28 91.81 88.96 92.14 C 87.38 92.01 85.48 91.89 85.02 93.82 L 84.18 93.83 C 82.8 91.27 79.66 91.9 77.24 91.7 C 75.75 91.41 74.24 91.53 72.77 91.83 C 72.17 91.78 70.97 91.7 70.37 91.66 C 69.12 91.13 67.78 91.21 66.51 91.59 C 64.88 91.68 63.46 92.42 62.99 94.08 C 62.17 89.84 56.9 91.24 53.79 91.74 C 53.44 93.85 53.53 95.99 53.65 98.12 C 52.86 96.14 54.16 93.06 52.1 91.87 C 49.95 91.16 49.59 92.97 49.41 94.61 C 46.37 96.01 48 90.78 44.86 92.04 C 43.6 91.98 42.34 91.92 41.08 91.87 C 39.95 91.82 38.95 92.19 38.09 93 C 37.62 92.75 36.69 92.25 36.22 92 C 33.8 91.46 31.29 91.91 28.84 91.93 C 28.39 91.94 27.49 91.95 27.04 91.96 C 26.29 92.01 24.8 92.12 24.05 92.17 C 23.57 91.84 22.6 91.19 22.12 90.86 L 22.06 89.97 C 24 90.03 25.98 90.29 27.89 89.86 C 28.26 89.72 29 89.44 29.37 89.31 C 30.66 89.35 31.96 89.36 33.25 89.32 C 33.69 89.32 34.59 89.3 35.03 89.29 C 37.03 89.44 39.03 89.44 41.02 89.23 L 42.17 89.25 C 43.39 89.32 44.6 89.36 45.83 89.38 C 54.55 89.9 63.31 89.51 72.05 89.64 C 72.48 89.63 73.34 89.6 73.77 89.59 C 75.62 89.64 77.47 89.62 79.31 89.41 C 80.55 89.35 81.8 89.29 83.05 89.22 C 83.53 89.22 84.48 89.23 84.95 89.24 C 86.84 89.37 89.76 89.98 89.49 87.1 C 89.62 86.29 89.55 85.49 89.27 84.71 C 89.17 82.51 86.92 82.67 85.32 82.74 C 81.83 80.99 77.82 81.85 74.22 80.43 C 75.68 79.24 77.9 79.63 79.17 78.08 Z" stroke-linecap="round" />
</g>
		<g transform="matrix(1.33 0 0 1.33 -37.38 23.55)" id="rUjxDdZglr-h3NjSYiBaX"  >
<path style="stroke: none; stroke-width: 1; stroke-dasharray: none; stroke-linecap: butt; stroke-dashoffset: 0; stroke-linejoin: miter; stroke-miterlimit: 4; fill: rgb(230,176,42); fill-rule: nonzero; opacity: 1;" vector-effect="non-scaling-stroke"  transform=" translate(-31.47, -80.16)" d="M 29.31 80.99 C 29.27 79.1 31.79 79.31 33.01 78.78 C 35.18 81.42 31.06 82.2 29.31 80.99 Z" stroke-linecap="round" />
</g>
		<g transform="matrix(1.33 0 0 1.33 33.32 23.67)" id="B8-AdYYXf-DEOGPWVrTP4"  >
<path style="stroke: none; stroke-width: 1; stroke-dasharray: none; stroke-linecap: butt; stroke-dashoffset: 0; stroke-linejoin: miter; stroke-miterlimit: 4; fill: rgb(224,217,204); fill-rule: nonzero; opacity: 1;" vector-effect="non-scaling-stroke"  transform=" translate(-84.49, -80.25)" d="M 82.14 79.11 C 83.9 79.33 85.78 79.73 86.95 81.21 C 85.23 81.38 81.35 82.04 82.14 79.11 Z" stroke-linecap="round" />
</g>
		<g transform="matrix(1.33 0 0 1.33 7.33 30.1)" id="hKVyrstCuiG0H6W0DsDxO"  >
<path style="stroke: none; stroke-width: 1; stroke-dasharray: none; stroke-linecap: butt; stroke-dashoffset: 0; stroke-linejoin: miter; stroke-miterlimit: 4; fill: rgb(167,112,11); fill-rule: nonzero; opacity: 1;" vector-effect="non-scaling-stroke"  transform=" translate(-64.99, -85.08)" d="M 62.75 84.16 C 62.66 81.53 65.35 82.27 67.1 82 C 67.13 82.76 67.2 84.26 67.24 85.02 C 66.72 86.05 66.23 87.1 65.76 88.15 L 65.17 88.15 C 64.83 87.58 64.17 86.45 63.83 85.88 C 63.56 85.45 63.02 84.59 62.75 84.16 Z" stroke-linecap="round" />
</g>
		<g transform="matrix(1.33 0 0 1.33 -38.27 28.61)" id="4f5W4yH3jYSYXDWgDmsGk"  >
<path style="stroke: none; stroke-width: 1; stroke-dasharray: none; stroke-linecap: butt; stroke-dashoffset: 0; stroke-linejoin: miter; stroke-miterlimit: 4; fill: rgb(233,173,51); fill-rule: nonzero; opacity: 1;" vector-effect="non-scaling-stroke"  transform=" translate(-30.8, -83.95)" d="M 28.94 84.81 C 29.16 84.34 29.61 83.39 29.83 82.92 C 34.64 82.65 32.61 85.81 28.94 84.81 Z" stroke-linecap="round" />
</g>
		<g transform="matrix(1.33 0 0 1.33 -18.65 28.35)" id="qLN48YlLpNDcytSLwlaCV"  >
<path style="stroke: none; stroke-width: 1; stroke-dasharray: none; stroke-linecap: butt; stroke-dashoffset: 0; stroke-linejoin: miter; stroke-miterlimit: 4; fill: rgb(165,106,8); fill-rule: nonzero; opacity: 1;" vector-effect="non-scaling-stroke"  transform=" translate(-45.51, -83.76)" d="M 44.01 84.84 C 43.12 81.98 47.8 81.98 47.05 84.78 C 46.29 84.79 44.77 84.83 44.01 84.84 Z" stroke-linecap="round" />
</g>
		<g transform="matrix(1.33 0 0 1.33 36.95 28.35)" id="cKRRT-4rFOHANmvb2xvW5"  >
<path style="stroke: none; stroke-width: 1; stroke-dasharray: none; stroke-linecap: butt; stroke-dashoffset: 0; stroke-linejoin: miter; stroke-miterlimit: 4; fill: rgb(242,189,36); fill-rule: nonzero; opacity: 1;" vector-effect="non-scaling-stroke"  transform=" translate(-87.21, -83.76)" d="M 85.32 82.74 C 86.92 82.67 89.17 82.51 89.27 84.71 C 87.52 84.61 84.39 85.68 85.32 82.74 Z" stroke-linecap="round" />
</g>
		<g transform="matrix(1.33 0 0 1.33 20.46 33.86)" id="Xl0SQkbIulWhOAr2vj6xo"  >
<path style="stroke: none; stroke-width: 1; stroke-dasharray: none; stroke-linecap: butt; stroke-dashoffset: 0; stroke-linejoin: miter; stroke-miterlimit: 4; fill: rgb(242,189,36); fill-rule: nonzero; opacity: 1;" vector-effect="non-scaling-stroke"  transform=" translate(-74.84, -87.89)" d="M 72.05 89.64 C 71.14 85.54 74.85 85.99 77.75 86.41 C 78.09 88.74 75.22 88.73 73.77 89.59 C 73.34 89.6 72.48 89.63 72.05 89.64 Z" stroke-linecap="round" />
</g>
		<g transform="matrix(1.33 0 0 1.33 43.1 31.2)" id="yRaV4KS84syICnycNEyHs"  >
<path style="stroke: none; stroke-width: 1; stroke-dasharray: none; stroke-linecap: butt; stroke-dashoffset: 0; stroke-linejoin: miter; stroke-miterlimit: 4; fill: rgb(225,218,200); fill-rule: nonzero; opacity: 1;" vector-effect="non-scaling-stroke"  transform=" translate(-91.83, -85.9)" d="M 91.01 82.57 C 93.95 83.45 93.47 90.37 90.65 89.06 C 90.72 86.9 90.76 84.73 91.01 82.57 Z" stroke-linecap="round" />
</g>
		<g transform="matrix(1.33 0 0 1.33 -20.38 32.87)" id="f_96XIwo8QJrIBtTKBioB"  >
<path style="stroke: none; stroke-width: 1; stroke-dasharray: none; stroke-linecap: butt; stroke-dashoffset: 0; stroke-linejoin: miter; stroke-miterlimit: 4; fill: rgb(241,177,37); fill-rule: nonzero; opacity: 1;" vector-effect="non-scaling-stroke"  transform=" translate(-44.22, -87.16)" d="M 42.1 84.93 L 42.88 85.03 C 44.52 86.32 47.52 86.63 45.83 89.38 C 44.6 89.36 43.39 89.32 42.17 89.25 C 42.25 87.81 42.23 86.36 42.1 84.93 Z" stroke-linecap="round" />
</g>
		<g transform="matrix(1.33 0 0 1.33 11.5 32.67)" id="n852Kl9jR1kFe0avjuUcr"  >
<path style="stroke: none; stroke-width: 1; stroke-dasharray: none; stroke-linecap: butt; stroke-dashoffset: 0; stroke-linejoin: miter; stroke-miterlimit: 4; fill: rgb(235,183,38); fill-rule: nonzero; opacity: 1;" vector-effect="non-scaling-stroke"  transform=" translate(-68.12, -87)" d="M 67.24 85.02 L 68.11 85.18 C 72.89 87.35 69.59 90.49 65.76 88.15 C 66.23 87.1 66.72 86.05 67.24 85.02 Z" stroke-linecap="round" />
</g>
		<g transform="matrix(1.33 0 0 1.33 -44.8 33.53)" id="KhgkhEfkZwcOF6DAokAsA"  >
<path style="stroke: none; stroke-width: 1; stroke-dasharray: none; stroke-linecap: butt; stroke-dashoffset: 0; stroke-linejoin: miter; stroke-miterlimit: 4; fill: rgb(237,180,45); fill-rule: nonzero; opacity: 1;" vector-effect="non-scaling-stroke"  transform=" translate(-25.9, -87.65)" d="M 27.72 89.12 C 22.85 91.04 22.89 84.86 27.65 85.93 C 27.66 86.72 27.7 88.32 27.72 89.12 Z" stroke-linecap="round" />
</g>
		<g transform="matrix(1.33 0 0 1.33 -37.68 33.62)" id="8sEVmb-CbNN8U6xyoE445"  >
<path style="stroke: none; stroke-width: 1; stroke-dasharray: none; stroke-linecap: butt; stroke-dashoffset: 0; stroke-linejoin: miter; stroke-miterlimit: 4; fill: rgb(248,180,27); fill-rule: nonzero; opacity: 1;" vector-effect="non-scaling-stroke"  transform=" translate(-31.24, -87.72)" d="M 29.37 89.31 C 27.45 85.02 34.7 85.01 33.25 89.32 C 31.96 89.36 30.66 89.35 29.37 89.31 Z" stroke-linecap="round" />
</g>
		<g transform="matrix(1.33 0 0 1.33 -28.74 33.62)" id="8svkaKByzPCavl6Kw3LVi"  >
<path style="stroke: none; stroke-width: 1; stroke-dasharray: none; stroke-linecap: butt; stroke-dashoffset: 0; stroke-linejoin: miter; stroke-miterlimit: 4; fill: rgb(242,186,28); fill-rule: nonzero; opacity: 1;" vector-effect="non-scaling-stroke"  transform=" translate(-37.95, -87.72)" d="M 35.03 89.29 C 33.55 84.8 41.57 85.13 41.02 89.23 C 39.03 89.44 37.03 89.44 35.03 89.29 Z" stroke-linecap="round" />
</g>
		<g transform="matrix(1.33 0 0 1.33 -12.87 33.04)" id="WIKw2fdmbh4JZrFPiY6Ty"  >
<path style="stroke: none; stroke-width: 1; stroke-dasharray: none; stroke-linecap: butt; stroke-dashoffset: 0; stroke-linejoin: miter; stroke-miterlimit: 4; fill: rgb(243,183,41); fill-rule: nonzero; opacity: 1;" vector-effect="non-scaling-stroke"  transform=" translate(-49.85, -87.28)" d="M 48.3 86.15 C 49.75 84.43 52.62 86.94 51.8 88.69 C 49.92 89.43 46.4 88.82 48.3 86.15 Z" stroke-linecap="round" />
</g>
		<g transform="matrix(1.33 0 0 1.33 -4.06 33.49)" id="uPLHsRGkNzb9P7ZT7AxrD"  >
<path style="stroke: none; stroke-width: 1; stroke-dasharray: none; stroke-linecap: butt; stroke-dashoffset: 0; stroke-linejoin: miter; stroke-miterlimit: 4; fill: rgb(251,186,48); fill-rule: nonzero; opacity: 1;" vector-effect="non-scaling-stroke"  transform=" translate(-56.46, -87.62)" d="M 54.29 86.32 C 56.44 86.25 59.91 85.39 58.64 88.75 C 56.41 89.2 52.99 89.66 54.29 86.32 Z" stroke-linecap="round" />
</g>
		<g transform="matrix(1.33 0 0 1.33 28.81 33.69)" id="QH4UvMkemhgx_EXrj4o5R"  >
<path style="stroke: none; stroke-width: 1; stroke-dasharray: none; stroke-linecap: butt; stroke-dashoffset: 0; stroke-linejoin: miter; stroke-miterlimit: 4; fill: rgb(251,186,48); fill-rule: nonzero; opacity: 1;" vector-effect="non-scaling-stroke"  transform=" translate(-81.11, -87.77)" d="M 79.31 89.41 C 77.41 85.18 84.43 84.96 83.05 89.22 C 81.8 89.29 80.55 89.35 79.31 89.41 Z" stroke-linecap="round" />
</g>
		<g transform="matrix(1.33 0 0 1.33 36.91 33.72)" id="7che0WkR6PcAKB_Zd7DWG"  >
<path style="stroke: none; stroke-width: 1; stroke-dasharray: none; stroke-linecap: butt; stroke-dashoffset: 0; stroke-linejoin: miter; stroke-miterlimit: 4; fill: rgb(251,186,48); fill-rule: nonzero; opacity: 1;" vector-effect="non-scaling-stroke"  transform=" translate(-87.18, -87.79)" d="M 84.95 89.24 C 84.3 85.98 87.32 85.46 89.49 87.1 C 89.76 89.98 86.84 89.37 84.95 89.24 Z" stroke-linecap="round" />
</g>
		<g transform="matrix(1.33 0 0 1.33 4.77 33.21)" id="sdBR5FKqcPF4CvxiZirPv"  >
<path style="stroke: none; stroke-width: 1; stroke-dasharray: none; stroke-linecap: butt; stroke-dashoffset: 0; stroke-linejoin: miter; stroke-miterlimit: 4; fill: rgb(244,183,47); fill-rule: nonzero; opacity: 1;" vector-effect="non-scaling-stroke"  transform=" translate(-63.08, -87.41)" d="M 65.17 88.15 C 61.38 91.47 58.67 84.7 63.83 85.88 C 64.17 86.45 64.83 87.58 65.17 88.15 Z" stroke-linecap="round" />
</g>
		<g transform="matrix(1.33 0 0 1.33 -3.11 45.58)" id="IFhGB59tYXsItDEoWDl94"  >
<path style="stroke: none; stroke-width: 1; stroke-dasharray: none; stroke-linecap: butt; stroke-dashoffset: 0; stroke-linejoin: miter; stroke-miterlimit: 4; fill: rgb(88,111,158); fill-rule: nonzero; opacity: 1;" vector-effect="non-scaling-stroke"  transform=" translate(-57.17, -96.68)" d="M 9.13 90.94 C 13.42 90.46 17.8 90.82 22.12 90.86 C 22.6 91.19 23.57 91.84 24.05 92.17 C 23.46 94.8 21.65 97.25 22 100.01 C 24.27 98.56 26.58 98.57 28.89 99.85 C 29.9 97.33 27.54 94.55 27.04 91.96 C 27.49 91.95 28.39 91.94 28.84 91.93 C 32.63 93.74 29.55 100.01 33.68 99.79 C 33.22 96.45 34.74 94.32 36.22 92 C 36.69 92.25 37.62 92.75 38.09 93 C 37.56 95.31 36.17 97.42 36.21 99.85 C 38.8 98.55 41.13 98.94 43.75 99.82 C 43.47 97.01 42.22 94.41 41.08 91.87 C 42.34 91.92 43.6 91.98 44.86 92.04 C 44.88 94.64 44.46 97.32 45.28 99.83 C 47.5 99.95 48.94 93.43 49.48 98.89 C 52.85 102.29 52.26 94.19 52.1 91.87 C 54.16 93.06 52.86 96.14 53.65 98.12 C 57.83 102.99 62.98 97.01 60.75 92.12 C 56.67 91.12 59.35 95.86 58.09 98 C 53.84 98.48 58.29 91.12 53.79 91.74 C 56.9 91.24 62.17 89.84 62.99 94.08 C 62.59 96.17 60.23 101.72 64.16 98.96 C 67.46 98.37 74.96 101.94 75.96 98.06 C 71.81 98.73 72.26 94.64 72.77 91.83 C 74.24 91.53 75.75 91.41 77.24 91.7 C 77.67 94.11 75.65 99.02 78.81 99.77 C 79.55 96.56 83.64 97.15 84.18 93.83 L 85.02 93.82 C 85.24 95.55 81.75 100.85 85.39 99.31 C 87.3 97.42 89.61 101.18 91.31 99.05 C 90.56 96.74 89.56 94.5 88.96 92.14 C 89.28 91.81 89.91 91.16 90.23 90.83 C 95.21 90.62 100.21 90.59 105.2 90.78 C 101.32 96.15 95.09 101.62 88.15 101.76 C 79.5 101.36 70.83 101.59 62.18 101.61 C 49.27 101.25 36.34 101.42 23.43 101.47 C 23.27 101.75 22.94 102.3 22.78 102.57 C 21.77 103.11 20.58 101.99 19.98 101.22 C 16.69 97.52 10.95 95.96 9.13 90.94 Z" stroke-linecap="round" />
</g>
		<g transform="matrix(1.33 0 0 1.33 -25.97 44.71)" id="57Jrds-8em4TZJf3Qwhgt"  >
<path style="stroke: none; stroke-width: 1; stroke-dasharray: none; stroke-linecap: butt; stroke-dashoffset: 0; stroke-linejoin: miter; stroke-miterlimit: 4; fill: rgb(88,111,158); fill-rule: nonzero; opacity: 1;" vector-effect="non-scaling-stroke"  transform=" translate(-40.03, -96.03)" d="M 39.18 95.19 C 43.67 94.13 38.24 99.77 39.18 95.19 Z" stroke-linecap="round" />
</g>
		<g transform="matrix(1.33 0 0 1.33 11.92 43.03)" id="E3gs1HJ7MaU7ZooQG4FFe"  >
<path style="stroke: none; stroke-width: 1; stroke-dasharray: none; stroke-linecap: butt; stroke-dashoffset: 0; stroke-linejoin: miter; stroke-miterlimit: 4; fill: rgb(96,116,124); fill-rule: nonzero; opacity: 1;" vector-effect="non-scaling-stroke"  transform=" translate(-68.44, -94.77)" d="M 66.51 91.59 C 67.78 91.21 69.12 91.13 70.37 91.66 C 70.24 93.86 70.24 96.06 70.06 98.26 C 67.68 97.28 67.85 93.64 66.51 91.59 Z" stroke-linecap="round" />
</g>
		<g transform="matrix(1.33 0 0 1.33 -45.27 44.65)" id="AQ4yByglWAdo5n6i-n4hh"  >
<path style="stroke: none; stroke-width: 1; stroke-dasharray: none; stroke-linecap: butt; stroke-dashoffset: 0; stroke-linejoin: miter; stroke-miterlimit: 4; fill: rgb(227,247,255); fill-rule: nonzero; opacity: 1;" vector-effect="non-scaling-stroke"  transform=" translate(-25.55, -95.98)" d="M 24.05 92.17 C 24.8 92.12 26.29 92.01 27.04 91.96 C 27.54 94.55 29.9 97.33 28.89 99.85 C 26.58 98.57 24.27 98.56 22 100.01 C 21.65 97.25 23.46 94.8 24.05 92.17 Z" stroke-linecap="round" />
</g>
		<g transform="matrix(1.33 0 0 1.33 -35.96 44.35)" id="R7TPiOiT2qGPUK_qHmgey"  >
<path style="stroke: none; stroke-width: 1; stroke-dasharray: none; stroke-linecap: butt; stroke-dashoffset: 0; stroke-linejoin: miter; stroke-miterlimit: 4; fill: rgb(238,250,255); fill-rule: nonzero; opacity: 1;" vector-effect="non-scaling-stroke"  transform=" translate(-32.53, -95.77)" d="M 28.84 91.93 C 31.29 91.91 33.8 91.46 36.22 92 C 34.74 94.32 33.22 96.45 33.68 99.79 C 29.55 100.01 32.63 93.74 28.84 91.93 Z" stroke-linecap="round" />
</g>
		<g transform="matrix(1.33 0 0 1.33 -26.03 44.48)" id="W6g5RyG2MZ2RpQaWpde3p"  >
<path style="stroke: none; stroke-width: 1; stroke-dasharray: none; stroke-linecap: butt; stroke-dashoffset: 0; stroke-linejoin: miter; stroke-miterlimit: 4; fill: rgb(238,250,255); fill-rule: nonzero; opacity: 1;" vector-effect="non-scaling-stroke"  transform=" translate(-39.98, -95.86)" d="M 38.09 93 C 38.95 92.19 39.95 91.82 41.08 91.87 C 42.22 94.41 43.47 97.01 43.75 99.82 C 41.13 98.94 38.8 98.55 36.21 99.85 C 36.17 97.42 37.56 95.31 38.09 93 M 39.18 95.19 C 38.24 99.77 43.67 94.13 39.18 95.19 Z" stroke-linecap="round" />
</g>
		<g transform="matrix(1.33 0 0 1.33 -14.66 44.36)" id="MzBaONbxg8gXk3fTix-ll"  >
<path style="stroke: none; stroke-width: 1; stroke-dasharray: none; stroke-linecap: butt; stroke-dashoffset: 0; stroke-linejoin: miter; stroke-miterlimit: 4; fill: rgb(234,250,255); fill-rule: nonzero; opacity: 1;" vector-effect="non-scaling-stroke"  transform=" translate(-48.51, -95.77)" d="M 44.86 92.04 C 48 90.78 46.37 96.01 49.41 94.61 C 49.59 92.97 49.95 91.16 52.1 91.87 C 52.26 94.19 52.85 102.29 49.48 98.89 C 48.94 93.43 47.5 99.95 45.28 99.83 C 44.46 97.32 44.88 94.64 44.86 92.04 Z" stroke-linecap="round" />
</g>
		<g transform="matrix(1.33 0 0 1.33 -2.78 44.42)" id="P9GPuq30KfntrIvwqTKbV"  >
<path style="stroke: none; stroke-width: 1; stroke-dasharray: none; stroke-linecap: butt; stroke-dashoffset: 0; stroke-linejoin: miter; stroke-miterlimit: 4; fill: rgb(243,255,255); fill-rule: nonzero; opacity: 1;" vector-effect="non-scaling-stroke"  transform=" translate(-57.42, -95.82)" d="M 53.79 91.74 C 58.29 91.12 53.84 98.48 58.09 98 C 59.35 95.86 56.67 91.12 60.75 92.12 C 62.98 97.01 57.83 102.99 53.65 98.12 C 53.53 95.99 53.44 93.85 53.79 91.74 Z" stroke-linecap="round" />
</g>
		<g transform="matrix(1.33 0 0 1.33 12.59 44.32)" id="l-xpxJWPNvXwxAO50aJUX"  >
<path style="stroke: none; stroke-width: 1; stroke-dasharray: none; stroke-linecap: butt; stroke-dashoffset: 0; stroke-linejoin: miter; stroke-miterlimit: 4; fill: rgb(239,251,255); fill-rule: nonzero; opacity: 1;" vector-effect="non-scaling-stroke"  transform=" translate(-68.94, -95.74)" d="M 62.99 94.08 C 63.46 92.42 64.88 91.68 66.51 91.59 C 67.85 93.64 67.68 97.28 70.06 98.26 C 70.24 96.06 70.24 93.86 70.37 91.66 C 70.97 91.7 72.17 91.78 72.77 91.83 C 72.26 94.64 71.81 98.73 75.96 98.06 C 74.96 101.94 67.46 98.37 64.16 98.96 C 60.23 101.72 62.59 96.17 62.99 94.08 Z" stroke-linecap="round" />
</g>
		<g transform="matrix(1.33 0 0 1.33 28.12 44.31)" id="F6qglqwi65NcUVK5YVKpU"  >
<path style="stroke: none; stroke-width: 1; stroke-dasharray: none; stroke-linecap: butt; stroke-dashoffset: 0; stroke-linejoin: miter; stroke-miterlimit: 4; fill: rgb(231,241,252); fill-rule: nonzero; opacity: 1;" vector-effect="non-scaling-stroke"  transform=" translate(-80.59, -95.73)" d="M 77.24 91.7 C 79.66 91.9 82.8 91.27 84.18 93.83 C 83.64 97.15 79.55 96.56 78.81 99.77 C 75.65 99.02 77.67 94.11 77.24 91.7 Z" stroke-linecap="round" />
</g>
		<g transform="matrix(1.33 0 0 1.33 37.36 44.53)" id="OR8wCND3osVryYIfeiBJO"  >
<path style="stroke: none; stroke-width: 1; stroke-dasharray: none; stroke-linecap: butt; stroke-dashoffset: 0; stroke-linejoin: miter; stroke-miterlimit: 4; fill: rgb(231,244,254); fill-rule: nonzero; opacity: 1;" vector-effect="non-scaling-stroke"  transform=" translate(-87.52, -95.9)" d="M 85.02 93.82 C 85.48 91.89 87.38 92.01 88.96 92.14 C 89.56 94.5 90.56 96.74 91.31 99.05 C 89.61 101.18 87.3 97.42 85.39 99.31 C 81.75 100.85 85.24 95.55 85.02 93.82 Z" stroke-linecap="round" />
</g>
		<g transform="matrix(1.33 0 0 1.33 17.35 60.28)" id="vSSI9FM0Rts_S5UgDcoQl"  >
<path style="stroke: none; stroke-width: 1; stroke-dasharray: none; stroke-linecap: butt; stroke-dashoffset: 0; stroke-linejoin: miter; stroke-miterlimit: 4; fill: rgb(195,221,227); fill-rule: nonzero; opacity: 1;" vector-effect="non-scaling-stroke"  transform=" translate(-72.51, -107.71)" d="M 57.28 114.01 C 57.83 109.17 54.04 99.92 62.18 101.61 C 70.83 101.59 79.5 101.36 88.15 101.76 C 88.04 102.17 87.81 102.99 87.7 103.41 C 77.1 105.49 67.02 109.43 57.28 114.01 Z" stroke-linecap="round" />
</g>
</g>
</g>
<g transform="matrix(1 0 0 1 1091.94 81.77)" style="" id="_JlaiMdMj76cSsrS7ySDr"  >
		<text xml:space="preserve" font-family="Open Sans" font-size="95" font-style="italic" font-weight="600" letter-spacing="0.19" line-height="0.99" style="stroke: none; stroke-width: 1; stroke-dasharray: none; stroke-linecap: butt; stroke-dashoffset: 0; stroke-linejoin: miter; stroke-miterlimit: 4; fill: rgb(49,168,247); fill-rule: nonzero; opacity: 1; white-space: pre;" ><tspan x="-897.52" y="21.88" >U</tspan><tspan x="-832.3" y="21.88" >N</tspan><tspan x="-762.81" y="21.88" >I</tspan><tspan x="-734.55" y="21.88" >D</tspan><tspan x="-670.49" y="21.88" >A</tspan><tspan x="-613.85" y="21.88" >D</tspan><tspan x="-549.78" y="21.88" style="white-space: pre; "> </tspan><tspan x="-524.91" y="21.88" >E</tspan><tspan x="-474.44" y="21.88" >D</tspan><tspan x="-410.38" y="21.88" >U</tspan><tspan x="-345.15" y="21.88" >C</tspan><tspan x="-287.95" y="21.88" >A</tspan><tspan x="-231.31" y="21.88" >T</tspan><tspan x="-182.18" y="21.88" >I</tspan><tspan x="-153.93" y="21.88" >V</tspan><tspan x="-99.6" y="21.88" >A</tspan><tspan x="-42.96" y="21.88" style="white-space: pre; "> </tspan><tspan x="-18.09" y="21.88" >F</tspan><tspan x="30.01" y="21.88" >I</tspan><tspan x="58.27" y="21.88" >S</tspan><tspan x="107.58" y="21.88" >C</tspan><tspan x="164.78" y="21.88" >A</tspan><tspan x="221.42" y="21.88" >L</tspan><tspan x="269.02" y="21.88" style="white-space: pre; "> </tspan><tspan x="293.89" y="21.88" >A</tspan><tspan x="350.53" y="21.88" >T</tspan><tspan x="399.66" y="21.88" >A</tspan><tspan x="456.3" y="21.88" >H</tspan><tspan x="522.08" y="21.88" >U</tspan><tspan x="587.31" y="21.88" >A</tspan><tspan x="643.95" y="21.88" >L</tspan><tspan x="691.55" y="21.88" >P</tspan><tspan x="747.59" y="21.88" >A</tspan></text>
</g>
</svg>